<?xml version="1.0" standalone="no"?>
<!DOCTYPE svg PUBLIC "-//W3C//DTD SVG 20010904//EN"
 "http://www.w3.org/TR/2001/REC-SVG-20010904/DTD/svg10.dtd">
<svg version="1.0" xmlns="http://www.w3.org/2000/svg"
 width="550.000000pt" height="550.000000pt" viewBox="0 0 550.000000 550.000000"
 preserveAspectRatio="xMidYMid meet">
<metadata>
Created by potrace 1.14, written by Peter Selinger 2001-2017
</metadata>
<g transform="translate(0.000000,550.000000) scale(0.100000,-0.100000)"
fill="#000000" stroke="none">
<path d="M0 5217 c0 -203 3 -286 12 -295 9 -9 14 -6 22 11 8 14 22 22 42 24
17 1 44 9 60 18 16 8 36 15 44 15 27 0 60 30 59 53 -1 21 -2 20 -10 -3 -6 -17
-7 -1 -5 53 2 42 6 80 9 83 13 14 209 5 257 -11 44 -15 58 -15 103 -4 42 10
48 14 29 18 l-24 6 21 19 c19 17 21 17 21 3 0 -10 8 -18 18 -18 59 -5 72 -4
72 3 0 5 6 8 13 7 13 -2 44 8 67 22 8 5 25 14 38 19 13 5 21 14 17 19 -3 5 -1
12 5 16 5 3 10 0 10 -8 0 -8 9 -17 19 -20 16 -4 21 1 23 22 2 14 8 24 13 21 6
-3 9 -11 9 -17 -3 -21 14 -15 27 10 7 12 18 26 25 30 8 4 14 14 14 22 0 8 6
12 14 9 10 -4 17 10 26 48 7 29 19 62 26 73 8 11 14 23 14 27 0 5 -139 8 -310
8 -170 0 -310 -2 -310 -4 0 -3 4 -16 10 -30 5 -14 7 -39 4 -55 -6 -26 -12 -31
-57 -41 -54 -11 -67 -5 -67 33 0 9 -5 17 -11 17 -8 0 -10 14 -6 40 l5 40 -174
0 -174 0 0 -283z m570 73 c0 -5 -4 -10 -10 -10 -5 0 -10 5 -10 10 0 6 5 10 10
10 6 0 10 -4 10 -10z"/>
<path d="M2266 5426 c3 -7 -2 -16 -10 -19 -22 -9 -115 -81 -115 -90 -1 -4 -12
-20 -26 -35 -65 -73 -124 -241 -155 -437 -18 -114 -27 -155 -33 -162 -4 -3 -7
6 -7 20 0 45 40 308 56 372 29 113 98 236 163 292 14 11 23 24 20 27 -7 8
-119 -99 -151 -144 -39 -56 -85 -159 -107 -240 -16 -62 -44 -261 -40 -288 5
-34 -3 -182 -10 -182 -21 0 -15 291 9 404 6 32 9 60 6 63 -5 5 -39 -64 -76
-152 -10 -24 -17 -60 -34 -190 -19 -140 -26 -272 -31 -555 -3 -226 -3 -241 11
-200 17 54 23 105 24 224 0 74 2 87 15 82 12 -4 15 5 16 52 1 83 23 229 32
215 4 -7 5 -34 3 -60 -3 -26 -8 -113 -11 -191 -5 -138 -21 -261 -48 -367 -10
-39 -18 -51 -35 -53 -27 -4 -19 -22 9 -22 29 0 23 -27 -11 -47 -16 -9 -30 -21
-30 -26 0 -4 -5 -5 -10 -2 -6 4 -9 3 -8 -2 6 -16 -57 -103 -70 -98 -7 3 -10 1
-7 -4 12 -21 -18 -21 -36 0 -24 28 -24 27 7 55 14 13 23 28 20 33 -3 5 1 12
10 15 25 10 34 7 34 -9 0 -8 -4 -15 -9 -15 -9 0 -24 -30 -18 -37 2 -2 16 8 30
21 25 23 25 25 7 41 -13 12 -27 15 -55 9 -26 -5 -33 -9 -23 -15 9 -6 5 -9 -13
-9 -15 0 -32 -7 -39 -15 -7 -8 -28 -15 -48 -15 l-36 0 21 -20 c14 -12 19 -27
16 -40 -3 -11 -1 -20 4 -20 15 0 3 -58 -13 -64 -8 -3 -14 -1 -14 4 0 13 -73
80 -80 73 -3 -3 13 -20 35 -39 l40 -33 -19 -35 c-10 -19 -23 -32 -30 -29 -6 2
-25 23 -41 46 -34 47 -79 69 -52 25 8 -12 18 -34 22 -48 4 -13 14 -30 21 -38
19 -18 18 -33 -1 -26 -8 4 -15 10 -15 15 0 5 -9 9 -21 9 -14 0 -19 -5 -16 -14
3 -8 -7 -17 -29 -24 -19 -5 -34 -6 -34 -2 0 5 -12 -2 -26 -15 -15 -14 -32 -25
-38 -26 -6 -1 0 -5 14 -9 38 -12 378 -12 444 1 76 14 86 11 74 -21 -8 -22 -11
-23 -19 -8 -7 13 -16 15 -42 8 -17 -4 -72 -13 -122 -20 -49 -6 -99 -16 -110
-22 -11 -6 -40 -10 -66 -9 -41 1 -46 -1 -45 -21 1 -17 -6 -24 -29 -28 -24 -5
-29 -10 -28 -28 3 -26 13 -25 -172 -12 -193 15 -205 17 -205 40 0 10 -5 22
-10 25 -16 10 -23 -22 -12 -55 7 -18 7 -30 1 -30 -5 0 -9 -9 -9 -20 0 -11 3
-20 8 -20 10 0 32 -51 26 -61 -8 -14 -136 -10 -162 5 -21 11 -22 14 -8 25 17
14 22 51 8 51 -12 0 -29 40 -38 85 -3 20 -8 34 -11 32 -2 -3 1 -34 7 -69 l12
-65 -35 -54 c-43 -67 -143 -174 -151 -161 -3 5 0 22 6 39 12 32 3 103 -12 103
-6 0 -10 7 -10 15 0 18 -42 14 -48 -5 -3 -7 1 -11 9 -8 8 3 19 -1 26 -8 16
-16 17 -25 1 -19 -19 7 -32 -6 -48 -45 -8 -19 -20 -41 -26 -47 -7 -7 -10 -22
-7 -33 3 -13 0 -20 -8 -20 -9 -1 -7 -6 6 -17 16 -13 17 -15 3 -10 -16 6 -23
-3 -19 -25 0 -5 -3 -8 -8 -8 -14 0 -19 23 -10 47 6 17 5 21 -6 16 -20 -7 -19
12 1 31 8 9 14 22 11 29 -2 6 2 24 9 38 13 25 3 62 -10 40 -4 -6 -13 -11 -19
-11 -9 0 -9 2 -1 8 14 9 58 227 51 253 -5 18 0 19 106 13 74 -4 107 -2 98 4
-7 5 -60 13 -116 17 -94 6 -104 9 -109 28 l-6 22 -18 -21 c-14 -17 -22 -19
-40 -11 -12 6 -24 8 -27 5 -3 -3 -9 -47 -14 -98 -5 -54 -14 -95 -21 -100 -10
-6 -9 -9 1 -13 8 -3 9 -6 3 -6 -6 -1 -9 -11 -7 -23 2 -13 -8 -75 -22 -138 -14
-63 -26 -121 -27 -127 -1 -7 -5 -13 -10 -13 -5 0 -7 -4 -3 -9 3 -5 -2 -29 -10
-53 -35 -96 -50 -168 -41 -201 6 -26 10 -27 66 -27 50 0 60 3 65 20 5 15 15
20 40 20 43 0 79 14 105 40 11 11 23 19 27 19 4 -1 12 7 18 17 5 11 16 23 23
27 6 4 12 15 12 22 0 8 6 15 14 15 8 0 17 9 21 19 3 11 12 22 20 25 8 3 15 12
15 20 0 7 7 16 15 20 8 3 15 11 15 18 0 7 9 19 20 26 11 7 20 18 20 26 0 8 7
16 15 20 8 3 15 12 15 21 0 8 7 15 15 15 8 0 17 11 21 24 11 44 106 46 121 3
4 -12 6 -25 5 -29 -3 -14 15 -9 28 7 7 8 18 15 24 15 6 0 -4 -14 -22 -31 -18
-16 -37 -27 -43 -24 -5 4 -12 -1 -15 -9 -9 -24 -26 -8 -18 17 6 21 5 21 -11 5
-10 -9 -19 -30 -21 -47 -5 -40 -45 -103 -83 -131 -26 -18 -31 -28 -31 -64 0
-24 -4 -56 -9 -72 -5 -16 -12 -44 -15 -63 l-6 -34 20 26 c11 14 20 28 20 31 0
4 7 23 15 42 l15 36 41 -42 c23 -23 43 -39 46 -36 3 2 -14 21 -36 41 -23 21
-41 44 -41 53 0 11 11 6 35 -18 19 -18 37 -31 41 -28 3 4 -10 22 -30 42 -33
31 -35 37 -24 56 7 11 16 20 21 20 4 0 5 -5 1 -12 -4 -6 9 1 30 17 23 18 33
31 26 35 -8 5 -7 9 3 13 18 7 87 -54 87 -77 0 -8 6 -13 13 -11 17 6 44 -17 44
-38 0 -26 -115 -130 -136 -122 -14 5 -14 4 1 -12 17 -16 19 -16 34 2 8 11 13
13 9 5 -4 -8 2 -5 12 8 12 14 25 21 35 17 9 -4 30 1 47 10 18 9 37 13 43 9 7
-4 8 -3 4 4 -4 7 8 15 33 22 22 6 42 14 45 18 3 4 -4 27 -15 51 -10 24 -19 47
-19 52 0 15 27 10 41 -7 11 -13 15 -14 23 -2 8 10 35 15 91 15 47 1 81 6 83
12 2 6 8 9 13 6 5 -4 6 1 3 9 -5 14 -8 14 -27 1 -15 -10 -47 -15 -99 -15 -69
0 -77 -2 -71 -17 6 -17 5 -17 -14 0 -11 9 -27 17 -35 17 -20 0 -32 29 -18 45
5 6 7 15 3 18 -3 4 5 16 18 28 l24 21 -32 -21 c-17 -12 -36 -21 -41 -21 -10 0
-11 -31 -1 -40 3 -3 17 -36 31 -74 l25 -70 -60 -28 c-38 -18 -64 -25 -70 -19
-12 12 1 34 18 27 8 -3 15 5 18 20 2 13 0 24 -6 24 -6 0 -5 5 1 13 8 9 -7 27
-59 71 -38 32 -69 62 -69 67 0 12 7 11 31 -2 15 -8 24 -7 35 2 12 10 13 9 8
-6 -5 -13 -4 -16 5 -11 7 5 10 14 7 21 -2 7 1 18 7 25 9 10 9 11 -3 5 -8 -4
-22 -14 -31 -22 -14 -12 -17 -12 -23 2 -8 21 16 45 46 45 13 0 30 5 38 10 13
9 13 11 0 20 -11 8 -9 9 11 4 15 -3 30 -1 33 5 11 17 23 13 29 -9 3 -14 14
-20 31 -20 14 0 26 -4 26 -8 0 -4 20 -6 44 -5 67 4 216 81 216 112 0 6 4 11 9
11 5 0 11 9 14 21 8 31 23 16 36 -37 7 -26 14 -44 17 -42 7 8 -31 121 -42 125
-6 2 -17 -10 -24 -27 -8 -20 -18 -29 -27 -26 -8 3 -11 1 -8 -4 3 -6 1 -10 -4
-10 -6 0 -10 -6 -9 -12 2 -7 -34 -32 -80 -56 -77 -40 -85 -42 -118 -32 -19 7
-41 9 -48 7 -16 -6 -29 33 -20 57 7 19 24 21 24 4 0 -6 11 -2 23 11 21 19 26
20 36 7 22 -26 49 -29 77 -7 15 12 23 21 19 21 -5 0 -17 -8 -28 -18 -14 -12
-21 -13 -24 -5 -2 7 -11 9 -20 6 -11 -4 -14 -2 -9 5 4 7 3 12 -3 12 -6 0 -8 7
-5 15 8 20 31 19 44 -2 8 -15 9 -14 4 8 -6 27 17 56 36 44 5 -3 10 1 10 9 0 9
18 25 40 36 25 13 40 27 40 39 0 12 23 32 71 60 40 22 75 41 79 41 4 0 13 7
20 14 8 11 18 12 35 6 19 -7 31 -3 61 21 42 33 45 34 107 15 32 -10 49 -11 54
-3 3 6 1 7 -5 3 -7 -4 -12 -3 -12 3 0 15 78 58 130 72 47 12 120 6 120 -11 0
-6 -7 -10 -15 -10 -8 0 -15 -4 -15 -9 0 -6 9 -9 19 -8 11 0 17 5 15 9 -3 4 3
8 13 8 15 0 16 2 3 11 -11 7 1 8 41 3 60 -6 99 6 99 31 0 14 -11 19 -35 16 -5
-1 -1 6 10 14 10 8 29 14 41 12 24 -3 94 -60 94 -77 0 -5 4 -10 10 -10 5 0 21
-11 35 -26 14 -14 41 -32 61 -40 19 -8 34 -20 32 -26 -2 -6 6 -22 19 -36 23
-25 31 -48 13 -37 -5 3 -10 -1 -10 -9 0 -11 -10 -15 -36 -14 -29 1 -40 8 -60
37 -13 20 -24 29 -24 21 -1 -8 -7 0 -15 18 -10 23 -19 31 -27 25 -13 -8 -33
-13 -55 -15 -15 -2 -17 -14 -4 -22 5 -4 11 -1 13 6 3 7 7 4 12 -7 4 -11 4 -16
0 -12 -4 4 -13 2 -21 -4 -7 -6 -13 -8 -13 -3 0 5 -5 2 -11 -6 -9 -12 -10 -11
-6 7 3 15 1 20 -9 16 -8 -3 -14 -1 -14 3 0 5 -10 20 -21 34 l-21 25 17 -30
c33 -55 43 -67 79 -92 20 -13 34 -28 31 -33 -3 -4 2 -16 11 -25 16 -15 15 -16
-12 -13 -16 2 -28 8 -27 15 2 8 -5 8 -26 0 -25 -9 -28 -14 -21 -33 7 -17 4
-26 -15 -40 -13 -10 -22 -21 -19 -25 2 -4 -5 -5 -16 -2 -11 3 -17 9 -14 14 3
5 -7 9 -23 8 -25 0 -26 -1 -8 -9 19 -8 19 -9 -2 -9 -13 -1 -23 4 -23 9 0 6
-14 10 -31 10 -17 0 -28 4 -24 10 3 6 0 10 -8 10 -8 0 -26 23 -40 50 -15 28
-23 49 -19 46 4 -2 13 10 20 27 28 70 37 82 64 82 14 0 30 3 34 8 4 4 3 7 -3
7 -6 0 -14 7 -17 16 -3 8 -2 12 4 9 11 -7 14 8 4 18 -17 16 -86 -50 -130 -125
-10 -16 -13 -17 -24 -3 -7 8 -9 15 -4 15 7 0 -40 31 -96 65 -8 5 0 -8 18 -29
18 -21 43 -58 54 -81 13 -28 30 -46 44 -49 13 -4 31 -20 40 -38 35 -67 -21
-101 -172 -102 -51 -1 -90 -4 -87 -8 2 -5 0 -8 -5 -8 -16 0 -21 27 -9 40 9 10
9 11 -2 5 -11 -6 -13 -3 -9 13 4 12 2 20 -3 16 -5 -3 -14 8 -20 23 -6 15 -15
35 -19 44 -5 9 -6 20 -3 23 9 9 33 7 32 -1 -1 -5 -1 -24 0 -43 l2 -35 16 30
c10 17 16 39 15 50 -1 17 0 16 8 -4 7 -15 15 -21 26 -17 9 3 34 7 57 7 23 1
33 4 22 6 -11 3 -26 10 -32 15 -9 7 -13 7 -13 -1 0 -18 -38 -13 -49 7 -14 27
-12 34 26 82 30 38 26 36 -26 -16 -60 -61 -78 -74 -115 -81 -10 -2 -26 -8 -35
-13 -12 -7 -7 -8 16 -4 28 6 34 3 45 -21 11 -24 10 -29 -7 -41 -18 -14 -18
-14 2 -14 13 0 25 -10 33 -29 15 -37 8 -49 -35 -57 -20 -3 -38 -11 -41 -16 -4
-6 1 -8 12 -4 43 13 117 26 121 22 3 -2 -23 -12 -56 -22 -34 -9 -61 -21 -61
-26 0 -9 16 -8 67 7 17 5 3 -2 -61 -32 -32 -14 -47 -10 -28 9 19 19 14 30 -8
18 -11 -6 -33 -9 -50 -8 -25 2 -29 6 -25 23 3 11 2 14 -1 7 -3 -6 -10 -10 -15
-7 -5 4 -6 -1 -3 -9 8 -21 -1 -20 -23 2 -10 9 -17 15 -16 13 2 -2 -2 -10 -8
-17 -22 -26 23 -48 47 -24 12 12 68 -26 59 -40 -7 -12 36 1 63 18 12 8 22 11
22 7 0 -4 7 -2 15 5 8 7 15 9 15 6 0 -4 10 0 22 8 19 14 23 14 35 -2 8 -9 12
-12 8 -5 -7 14 32 56 45 48 4 -3 20 -1 34 5 18 6 26 6 26 -1 0 -6 -9 -13 -20
-16 -16 -4 -18 -9 -9 -25 9 -17 8 -18 -13 -6 -13 7 -26 17 -30 23 -4 5 -10 1
-14 -10 -10 -29 -38 -53 -65 -57 -13 -1 -31 -10 -39 -18 -8 -9 -11 -10 -6 -2
7 10 -1 8 -27 -4 -43 -21 -44 -23 -17 -52 12 -12 17 -22 13 -22 -4 0 -17 12
-29 27 -16 20 -25 24 -40 18 -23 -10 -30 -12 -47 -14 -7 0 -22 -9 -33 -19 -37
-34 -79 -58 -103 -60 -13 0 -28 -7 -32 -14 -7 -11 -9 -11 -9 0 0 9 -7 11 -20
7 -22 -7 -26 5 -8 23 13 13 0 16 -18 4 -14 -9 -14 -42 0 -42 6 0 3 -5 -7 -11
-9 -5 -22 -7 -27 -4 -5 3 -7 0 -5 -8 5 -12 -47 -68 -61 -66 -19 3 -11 -15 27
-55 23 -26 39 -49 35 -53 -3 -3 -6 -1 -6 5 0 7 -5 12 -12 12 -6 0 -29 19 -49
43 -32 35 -40 40 -51 28 -11 -12 -10 -13 7 -7 18 6 19 5 3 -7 -10 -8 -14 -18
-10 -22 4 -5 -2 -5 -12 -1 -16 5 -17 4 -6 -9 15 -18 -1 -20 -19 -2 -10 10 -11
9 -7 -3 8 -21 -14 -45 -47 -54 -15 -3 -25 -11 -22 -17 5 -6 13 -5 23 3 15 11
15 11 5 -2 -12 -16 -68 -27 -59 -12 2 4 -4 9 -15 9 -10 1 -19 -3 -19 -8 0 -6
4 -7 10 -4 5 3 10 1 10 -5 0 -7 -7 -9 -16 -6 -9 3 -18 6 -20 6 -3 0 -3 4 1 9
3 5 1 12 -5 16 -17 11 -11 -20 8 -41 10 -10 23 -26 28 -35 5 -9 37 -47 72 -85
69 -74 107 -129 58 -85 -24 23 -31 20 -28 -10 1 -3 -6 -6 -14 -6 -16 0 -19 13
-4 22 6 4 7 11 4 17 -4 7 -2 8 4 4 33 -20 3 22 -71 99 l-84 88 -51 -17 c-28
-10 -57 -14 -64 -10 -7 4 1 -6 17 -22 17 -16 35 -27 40 -23 33 22 125 -27 125
-66 0 -13 28 -30 43 -27 4 1 7 -5 7 -14 0 -9 5 -12 11 -8 7 4 10 1 7 -7 -3 -8
-10 -15 -16 -15 -7 -1 -14 -3 -17 -4 -3 -1 -8 -4 -12 -5 -41 -12 -72 -29 -77
-41 -3 -8 -2 -13 3 -9 5 3 8 -3 7 -12 -2 -10 -6 -17 -9 -15 -4 1 -12 2 -18 2
-5 0 -8 4 -4 9 8 13 -98 9 -108 -4 -5 -6 -19 3 -37 25 -17 19 -30 31 -30 27 0
-4 -10 -2 -22 5 -13 7 -25 13 -28 14 -3 0 -22 8 -42 17 -58 26 -92 21 -163
-24 -56 -35 -69 -39 -102 -33 -21 3 -54 17 -74 30 -25 17 -52 25 -90 27 l-54
2 -3 -66 -3 -65 34 4 c39 4 54 -16 37 -49 -13 -23 -19 -24 -48 -3 l-22 15 0
-440 0 -441 71 0 c61 0 70 -2 65 -16 -3 -9 -6 -18 -6 -20 0 -2 -5 -4 -11 -4
-6 0 -25 -11 -42 -24 -18 -13 -42 -27 -54 -31 l-23 -6 0 -520 0 -519 759 0
c598 0 760 3 764 13 4 9 6 9 6 0 1 -10 405 -13 1986 -13 l1985 0 0 465 c0 458
0 465 -20 466 -11 1 -32 3 -47 4 -16 2 -129 8 -252 14 -123 6 -238 13 -255 16
-17 4 -56 2 -87 -3 -65 -10 -514 2 -689 18 -63 6 -151 13 -195 16 -44 3 -102
9 -130 13 l-50 6 -6 85 c-3 47 -6 75 -7 63 -3 -36 -17 -34 -18 2 0 19 2 32 6
30 13 -8 9 81 -5 105 -13 23 -14 19 -16 -60 -1 -47 -4 -98 -8 -115 -12 -53
-23 0 -22 104 1 99 9 121 45 121 33 0 90 18 111 35 20 16 20 16 -2 10 -20 -6
-21 -4 -13 25 5 18 13 37 19 44 5 6 7 47 4 96 -4 57 -9 78 -14 65 -5 -12 -8
35 -7 108 1 101 4 127 15 127 9 0 12 7 8 19 -3 10 1 24 10 31 8 7 15 18 15 24
0 6 10 16 22 21 20 9 22 16 19 72 l-2 62 41 -22 c28 -15 43 -31 48 -52 10 -35
33 -39 47 -7 11 26 50 30 59 6 4 -11 14 -15 31 -12 14 3 26 0 29 -8 4 -11 76
-54 89 -54 3 0 8 16 12 36 8 44 35 104 47 104 5 0 7 4 4 9 -3 4 11 17 32 27
20 10 39 21 42 24 3 3 16 6 30 6 39 2 40 3 34 22 -4 13 -2 12 7 -3 8 -11 14
-22 14 -25 0 -3 16 -21 35 -42 19 -20 43 -48 53 -62 13 -19 27 -26 51 -26 24
0 38 -7 49 -24 23 -35 48 -36 108 -8 58 28 88 56 89 85 0 31 80 88 80 57 0 -5
7 -7 15 -4 11 5 8 -6 -10 -37 -14 -24 -25 -51 -25 -60 0 -9 -11 -21 -24 -28
-13 -8 -32 -32 -43 -55 -10 -22 -29 -50 -42 -62 l-25 -21 23 -29 c24 -31 76
-63 103 -64 22 0 32 -34 18 -60 -10 -18 -22 -24 -43 -21 -4 0 -16 -8 -27 -19
-24 -24 -43 -25 -60 -5 -14 17 -45 21 -35 4 9 -14 -24 -49 -46 -49 -9 0 -19
-6 -21 -12 -7 -21 -224 -28 -357 -11 -63 8 -119 12 -126 9 -20 -7 -24 -68 -8
-106 30 -69 36 -78 59 -89 14 -6 44 -14 67 -17 23 -4 60 -15 82 -24 61 -27
115 -31 205 -16 72 13 94 13 178 0 165 -26 216 -32 252 -27 19 2 45 6 58 7 23
3 43 16 24 16 -7 0 -12 5 -12 10 0 13 57 13 65 0 3 -6 -2 -8 -12 -5 -13 4 -12
3 2 -4 11 -5 33 -12 48 -16 18 -3 27 -11 25 -21 -2 -9 4 -20 12 -24 8 -4 26
-12 38 -19 13 -7 47 -16 75 -21 29 -4 64 -11 80 -15 l27 -7 0 291 0 292 -30
10 c-38 14 -38 29 0 51 l30 17 0 273 0 273 -36 18 c-19 9 -39 15 -44 12 -5 -3
-23 -27 -40 -53 -16 -26 -45 -58 -62 -72 -61 -47 -143 -124 -166 -154 -13 -17
-40 -41 -60 -53 -38 -23 -68 -30 -57 -14 7 12 -14 26 -40 26 -23 0 -23 11 -4
100 7 33 25 82 41 108 15 26 28 50 28 52 0 11 -77 4 -88 -7 -7 -7 -12 -8 -12
-3 0 5 -14 -4 -30 -20 -37 -36 -94 -39 -116 -6 -9 12 -21 21 -27 21 -21 0 -72
73 -69 97 5 31 -34 32 -49 1 -6 -14 -41 -38 -87 -60 -42 -21 -92 -51 -110 -67
-30 -27 -33 -34 -27 -68 5 -28 4 -34 -4 -23 -6 8 -11 25 -11 37 0 12 -5 25
-11 29 -6 3 -9 15 -6 25 3 10 -1 40 -9 66 -13 44 -12 46 2 28 15 -19 15 -17 9
25 -8 46 -24 80 -38 80 -5 0 -6 -8 -2 -17 10 -25 15 -66 7 -58 -4 4 -8 11 -8
16 -1 5 -2 13 -3 19 0 5 -4 9 -8 8 -11 -2 -63 20 -63 27 0 4 5 3 10 0 21 -13
9 13 -12 28 -13 8 -20 18 -17 21 4 4 14 0 23 -9 9 -9 16 -14 16 -11 0 2 13 1
30 -4 l30 -9 -15 27 c-23 43 -43 64 -53 58 -5 -3 -9 1 -9 9 0 16 8 13 59 -27
l38 -29 -14 31 c-7 17 -36 57 -64 89 -36 42 -48 62 -41 72 5 8 6 26 3 42 -6
29 4 34 37 16 11 -6 96 -11 195 -13 140 -2 177 -5 184 -17 7 -11 33 -14 112
-14 57 0 188 -7 291 -15 165 -12 189 -12 197 0 7 11 5 16 -5 18 -20 4 -19 42
0 42 8 0 15 5 15 10 0 6 -46 10 -119 10 -86 0 -121 3 -124 13 -4 8 -6 7 -6 -3
-1 -14 -13 -15 -101 -5 -55 6 -100 8 -100 4 0 -4 -15 -3 -32 3 -18 5 -45 9
-60 9 -16 -1 -28 4 -28 10 0 8 -4 8 -12 2 -22 -17 -53 -20 -114 -12 -32 5 -96
11 -142 14 -46 3 -94 10 -108 15 -30 12 -34 50 -5 50 11 0 27 3 37 7 10 3 15
2 12 -3 -4 -5 18 -9 50 -9 35 0 57 5 59 13 3 8 -10 12 -44 13 -26 0 -57 4 -68
9 -14 6 -1 8 40 7 55 -2 60 0 63 20 3 18 7 21 25 14 40 -15 92 18 68 42 -9 9
-11 8 -6 -5 4 -11 2 -18 -4 -18 -6 0 -11 6 -11 14 0 9 -20 15 -65 19 -35 3
-76 14 -89 22 -14 9 -33 15 -43 12 -14 -4 -13 -5 5 -6 12 0 22 -7 22 -15 0 -8
13 -17 29 -21 16 -3 37 -17 45 -30 20 -31 20 -35 -1 -34 -11 0 -13 3 -6 6 23
9 -11 30 -58 36 -24 3 -45 6 -47 6 -2 1 0 10 3 22 6 18 4 20 -13 15 -28 -9
-40 14 -16 32 18 13 18 14 -3 7 -17 -5 -23 -2 -23 9 0 21 -21 31 -30 15 -5 -7
-6 -26 -3 -41 8 -39 -12 -35 -23 5 -9 29 -14 33 -69 43 -33 7 -61 12 -63 13
-1 1 4 14 13 31 17 33 20 74 5 65 -19 -12 -101 7 -122 29 l-21 21 7 -28 c4
-16 3 -27 -1 -24 -4 3 -37 8 -73 11 -36 4 -72 14 -82 23 -11 10 -45 17 -102
20 l-85 6 -3 31 c-2 24 -7 30 -23 28 l-20 -3 20 16 c18 15 21 14 34 -4 7 -12
19 -21 25 -21 6 0 4 5 -4 10 -9 6 -10 10 -3 10 6 0 15 -4 18 -10 10 -16 38
-12 31 5 -4 10 1 15 15 15 11 0 18 4 15 9 -4 5 -1 11 6 13 8 3 3 14 -15 32
-15 15 -25 31 -23 35 3 4 -8 5 -25 3 -16 -2 -29 -8 -29 -13 0 -5 -11 -9 -25
-9 -15 0 -25 -6 -25 -14 0 -13 -20 -26 -41 -26 -15 0 -10 19 9 40 10 11 17 33
17 53 -2 34 -1 34 42 33 23 0 44 4 45 9 4 14 -115 16 -124 2 -5 -8 -8 -7 -9 3
0 8 -2 24 -4 35 -6 29 -25 873 -24 1064 0 150 -7 198 -26 179 -8 -7 -8 -55 -1
-85 3 -13 2 -23 -2 -23 -13 0 -27 15 -30 30 -1 8 -6 29 -12 45 -7 23 -8 10 -4
-50 2 -44 7 -109 9 -145 9 -157 15 -1044 6 -1025 -9 19 -10 19 -10 -3 -1 -13
-5 -21 -10 -17 -5 3 -11 -3 -13 -12 -2 -13 -8 -9 -25 17 -20 32 -21 36 -6 64
9 17 21 35 27 39 6 4 -6 5 -26 1 -22 -3 -38 -2 -38 3 0 5 -6 10 -12 11 -7 1
-30 3 -50 6 -21 2 -45 9 -53 16 -10 9 -15 9 -15 1 0 -6 5 -11 10 -11 6 0 10
-5 10 -12 0 -7 -6 -5 -17 4 -10 9 -42 28 -70 42 -29 14 -53 29 -53 32 0 3 4 2
10 -1 5 -3 7 0 5 7 -3 7 -23 23 -45 34 l-39 22 6 -29 c4 -24 2 -29 -13 -29
-29 0 -49 16 -34 25 7 4 16 2 20 -5 5 -8 10 -8 14 -2 9 15 -21 23 -49 12 -14
-5 -25 -6 -25 -2 0 11 -223 -4 -248 -17 -12 -6 -22 -10 -22 -7 0 2 26 19 58
37 31 18 59 36 60 41 2 4 12 8 23 8 11 0 36 8 57 17 l37 16 -34 6 c-28 5 -36
12 -43 36 -5 21 -4 33 6 40 8 6 16 44 20 98 4 49 14 125 22 170 7 45 14 101
14 125 0 27 4 41 10 37 7 -4 8 -85 4 -241 l-7 -234 22 0 c14 0 25 -9 31 -25 5
-14 16 -25 25 -25 8 0 15 -4 15 -10 0 -5 5 -10 10 -10 6 0 10 11 10 24 0 14 5
28 10 31 5 3 10 -1 10 -9 0 -20 29 -48 42 -40 6 4 5 10 -3 16 -10 6 -7 7 9 3
13 -4 22 -2 22 4 0 6 -10 11 -23 11 -21 0 -23 4 -21 39 1 21 5 44 8 50 4 6 5
19 2 29 -2 9 -7 69 -11 134 -5 88 -2 129 9 170 23 82 29 178 16 244 -11 57
-59 178 -67 171 -2 -2 3 -33 12 -68 8 -35 14 -77 14 -94 -1 -21 -3 -24 -6 -10
-3 11 -8 22 -12 25 -7 6 -32 93 -36 130 -5 36 -27 98 -53 148 -24 46 -37 55
-28 19 3 -12 12 -81 21 -152 8 -72 17 -143 20 -160 l5 -30 -16 23 c-9 13 -18
43 -20 65 -6 82 -14 138 -20 149 -4 6 -9 34 -11 62 -2 28 -4 67 -6 87 -1 20
-10 47 -20 62 -9 14 -17 32 -17 39 0 16 -58 88 -70 88 -11 0 -30 -81 -30 -127
0 -21 9 -58 20 -82 36 -79 16 -113 -27 -46 -26 40 -63 61 -142 81 -85 22 -85
22 -71 39 18 21 3 19 -31 -6 -16 -11 -34 -17 -41 -13 -7 5 -9 2 -5 -9 3 -8 0
-20 -7 -26 -7 -6 -11 -23 -9 -39 3 -26 3 -26 -8 -5 -6 12 -25 27 -42 34 -28
12 -31 11 -59 -22 l-29 -34 3 30 c3 31 -11 50 -71 94 -32 23 -33 23 -26 2 3
-12 3 -21 -2 -20 -4 1 -21 -3 -36 -9 -16 -7 -37 -12 -48 -12 -25 0 -87 -32
-116 -60 -21 -19 -23 -19 -23 -3 1 10 20 74 43 143 34 99 48 128 68 137 14 8
18 13 9 13 -12 1 -12 3 2 14 10 7 15 16 11 20 -10 10 48 66 91 87 22 10 41 19
43 19 2 0 3 -16 3 -36 0 -21 4 -33 10 -29 6 3 10 17 10 30 0 13 6 30 13 37 12
10 11 18 -6 45 -10 18 -23 30 -28 27 -5 -3 -9 0 -9 5 0 6 -4 11 -10 11 -5 0
-7 -6 -4 -14z m170 -500 c8 -8 14 -19 14 -24 0 -5 9 -17 20 -27 21 -19 28 -41
8 -29 -8 5 -9 2 -3 -12 4 -10 9 -30 11 -44 3 -16 -1 -11 -10 13 -9 21 -12 45
-9 55 3 9 3 14 -2 10 -4 -4 -13 0 -20 9 -15 21 -50 26 -62 10 -5 -6 -16 -32
-23 -56 -10 -32 -16 -39 -20 -25 -6 16 -7 16 -14 -2 -5 -10 -10 -35 -12 -54
-3 -19 -6 -40 -9 -47 -2 -7 2 -10 11 -6 8 3 14 -1 14 -11 0 -9 9 -25 19 -35
11 -11 17 -21 15 -24 -3 -2 7 -2 21 0 13 3 22 9 19 14 -3 5 2 9 10 9 10 0 13
-6 9 -16 -5 -13 -2 -15 18 -9 38 12 46 22 65 84 l17 58 34 -23 c19 -12 58 -28
87 -34 86 -18 129 9 130 83 1 38 3 42 30 44 22 1 26 -1 18 -9 -15 -15 -16 -55
-2 -60 5 -1 14 -18 19 -35 9 -30 8 -33 -12 -33 -21 -1 -21 -2 6 -21 15 -11 27
-27 27 -34 0 -7 6 -16 13 -18 8 -4 9 -6 0 -6 -6 -1 -18 5 -26 13 -11 12 -15
11 -24 -3 -9 -14 -7 -17 10 -17 11 1 22 -6 25 -14 4 -12 2 -13 -9 -3 -9 7 -20
8 -29 3 -8 -5 -18 -6 -22 -4 -5 3 -8 2 -7 -3 4 -25 -3 -32 -31 -29 -17 2 -30
-1 -30 -8 0 -6 -4 -5 -9 3 -5 7 -14 10 -20 7 -6 -4 -11 -3 -11 3 0 5 8 11 18
14 13 3 10 6 -10 11 -16 5 -28 13 -28 19 0 5 -9 2 -20 -8 -24 -21 -38 -14 -16
8 14 13 14 16 0 21 -8 3 -12 2 -9 -3 3 -5 1 -12 -5 -16 -6 -4 -10 6 -10 24 0
33 11 39 29 17 8 -9 23 -12 44 -9 47 7 54 20 10 18 -21 -1 -57 6 -80 16 l-42
18 -6 -65 c-4 -35 -11 -64 -16 -64 -4 0 -5 -16 -2 -35 4 -23 2 -35 -6 -35 -6
0 -11 3 -12 8 -3 27 -9 46 -20 56 -9 8 -11 7 -6 -6 5 -15 1 -16 -25 -11 -22 4
-29 3 -24 -6 4 -6 11 -9 16 -6 16 10 48 -17 43 -36 -4 -15 -9 -17 -26 -7 -16
8 -22 8 -25 -1 -2 -6 -13 -11 -24 -11 -18 0 -20 5 -15 41 4 28 2 39 -6 36 -7
-2 -11 -17 -9 -34 3 -31 -18 -58 -26 -34 -4 11 -6 11 -14 0 -9 -14 -8 8 8 86
4 23 3 26 -5 15 -6 -8 -11 -25 -11 -38 0 -13 -4 -21 -8 -18 -4 2 -6 -11 -4
-30 4 -30 1 -34 -18 -34 -21 0 -22 4 -17 38 4 22 3 32 -2 23 -5 -7 -13 -11
-18 -8 -5 3 -8 -20 -6 -56 5 -87 -15 -52 -22 39 -8 107 -9 114 -20 114 -5 0
-3 5 5 10 13 8 12 10 -4 10 -16 0 -17 3 -8 12 7 7 12 18 12 26 0 18 -42 12
-48 -7 -3 -8 0 -11 7 -7 6 4 11 2 11 -3 0 -6 -8 -11 -17 -11 -14 -1 -13 -4 6
-14 25 -14 14 -31 -13 -20 -9 3 -16 1 -16 -5 0 -17 -30 -13 -36 4 -5 12 -10
13 -20 4 -8 -6 -14 -9 -14 -6 0 3 -12 0 -27 -8 -27 -14 -43 -12 -43 6 0 5 11
7 25 3 14 -3 25 -2 25 4 0 5 -7 9 -17 8 -19 -1 -31 34 -38 109 -4 42 -2 47 8
31 33 -52 47 -59 111 -54 81 7 136 36 159 82 9 20 17 42 17 50 0 7 11 22 25
34 14 12 25 28 25 36 0 13 13 23 33 25 5 1 15 -5 23 -13z m73 -126 c11 -24 11
-24 -3 -6 -9 11 -16 24 -16 30 0 12 5 7 19 -24z m-271 -17 c-10 -2 -28 -2 -40
0 -13 2 -5 4 17 4 22 1 32 -1 23 -4z m1274 -156 c2 -31 0 -57 -4 -57 -5 0 -7
37 -7 83 2 85 6 75 11 -26z m-1597 -37 c0 -25 -5 -40 -12 -40 -14 0 -17 37 -7
64 11 28 19 17 19 -24z m993 15 c-3 -3 -9 2 -12 12 -6 14 -5 15 5 6 7 -7 10
-15 7 -18z m-668 -11 c0 -8 -5 -12 -10 -9 -6 4 -8 11 -5 16 9 14 15 11 15 -7z
m-40 -20 c0 5 7 3 15 -4 8 -7 12 -16 9 -21 -3 -5 4 -22 15 -38 12 -16 21 -39
21 -51 0 -20 -2 -21 -17 -9 -15 12 -16 12 -10 -3 3 -10 2 -18 -3 -18 -6 0 -10
9 -10 20 0 11 7 20 15 20 8 0 15 5 15 11 0 6 -7 9 -14 6 -9 -4 -13 -1 -10 6 2
7 -12 23 -33 36 -25 15 -30 21 -16 18 19 -4 21 -2 13 13 -13 24 -13 40 0 20 5
-8 10 -11 10 -6z m-144 -3 c-4 -5 0 -12 6 -14 8 -3 6 -6 -4 -6 -10 -1 -18 6
-18 14 0 8 5 15 11 15 5 0 8 -4 5 -9z m-229 -48 c-3 -10 -5 -2 -5 17 0 19 2
27 5 18 2 -10 2 -26 0 -35z m850 31 c-3 -3 -12 -4 -19 -1 -8 3 -5 6 6 6 11 1
17 -2 13 -5z m420 -136 c-2 -29 -3 -8 -3 47 0 55 1 79 3 53 2 -26 2 -71 0
-100z m-1180 116 c-3 -3 -12 -4 -19 -1 -8 3 -5 6 6 6 11 1 17 -2 13 -5z m0
-20 c-3 -3 -12 -4 -19 -1 -8 3 -5 6 6 6 11 1 17 -2 13 -5z m1601 -121 c0 -75
-2 -109 -8 -93 -11 33 -12 223 -2 216 5 -3 9 -58 10 -123z m-1308 91 c0 -8 -4
-14 -10 -14 -5 0 -10 9 -10 21 0 11 5 17 10 14 6 -3 10 -13 10 -21z m-300 0
c0 -8 -4 -12 -10 -9 -5 3 -10 10 -10 16 0 5 5 9 10 9 6 0 10 -7 10 -16z m650
-11 c0 -10 -3 -29 -7 -41 -4 -18 -8 -20 -14 -10 -15 22 -11 68 6 68 8 0 15 -8
15 -17z m467 -88 c-3 -12 -5 -6 -6 13 0 17 -5 32 -10 32 -4 0 -6 12 -3 28 5
25 6 25 14 -13 5 -22 7 -49 5 -60z m-1127 54 c0 -11 -4 -18 -10 -14 -5 3 -7
12 -3 20 7 21 13 19 13 -6z m-3 -84 c0 -8 -4 -12 -9 -9 -5 3 -6 10 -3 15 9 13
12 11 12 -6z m-14 -40 c-3 -9 -8 -14 -10 -11 -3 3 -2 9 2 15 9 16 15 13 8 -4z
m1154 -72 c-2 -16 -4 -5 -4 22 0 28 2 40 4 28 2 -13 2 -35 0 -50z m487 -239
c3 -142 1 -241 -3 -219 -8 47 -15 492 -6 484 3 -3 7 -122 9 -265z m-1634 86
c0 -27 -4 -50 -10 -50 -11 0 -14 59 -4 84 10 27 14 18 14 -34z m1158 25 c-3
-3 -9 2 -12 12 -6 14 -5 15 5 6 7 -7 10 -15 7 -18z m-1006 -116 c13 -8 6 -51
-8 -56 -7 -2 -14 17 -18 49 -4 29 -9 64 -12 78 -2 14 3 5 12 -20 10 -25 21
-48 26 -51z m758 36 c0 -19 -4 -35 -10 -35 -11 0 -13 30 -4 54 10 25 14 19 14
-19z m-810 -105 c42 0 89 -24 112 -56 19 -28 19 -28 13 -4 -6 24 -5 24 7 4 7
-12 18 -19 24 -17 6 2 22 -10 37 -27 15 -16 54 -43 87 -60 79 -40 77 -46 -4
-10 -42 19 -76 28 -99 26 -30 -3 -35 -1 -32 15 2 10 0 21 -6 24 -5 4 -9 -1 -9
-9 0 -12 -11 -16 -47 -17 -38 0 -44 -2 -28 -10 15 -7 12 -8 -12 -3 -24 4 -44
-1 -76 -20 -24 -14 -46 -23 -50 -20 -3 3 -4 -1 -3 -10 1 -8 6 -19 11 -23 4 -4
5 -2 1 5 -4 6 -3 12 2 12 7 0 42 -62 42 -76 0 -2 -11 -2 -25 2 -22 5 -25 3
-25 -19 0 -14 -4 -29 -10 -32 -5 -3 -10 -12 -10 -18 0 -7 4 -6 10 3 6 9 10 10
10 3 0 -6 -4 -15 -10 -18 -5 -3 -10 -15 -10 -26 0 -10 -5 -19 -11 -19 -5 0 -7
5 -4 10 3 6 2 10 -4 10 -14 0 -20 -23 -10 -42 9 -17 -5 -20 -28 -5 -6 4 -14 3
-18 -3 -3 -5 -15 -10 -26 -10 -26 0 -26 35 1 37 13 1 18 -2 14 -9 -4 -7 -2 -8
5 -4 15 10 3 29 -15 22 -9 -3 -14 1 -14 12 0 12 -2 14 -8 4 -6 -9 -11 -6 -19
11 -9 18 -8 28 0 37 9 10 9 11 -2 5 -11 -6 -13 -4 -8 9 4 10 3 15 -3 11 -5 -3
-14 4 -21 16 -12 24 -10 26 46 56 17 8 37 22 46 29 13 11 23 12 44 4 15 -6 29
-9 31 -7 2 2 -10 29 -27 60 -21 40 -34 54 -45 50 -13 -5 -13 -7 -2 -14 10 -7
10 -9 0 -9 -20 0 -27 31 -9 42 10 5 17 15 17 23 0 9 15 17 39 21 28 4 38 10
34 20 -3 8 1 14 10 14 17 0 21 11 33 80 l8 45 9 -62 c9 -60 11 -63 37 -63z
m1203 -189 c75 -43 81 -52 64 -93 -20 -45 -46 -78 -47 -58 0 15 -220 145 -220
130 0 -4 34 -27 75 -51 41 -23 73 -44 72 -45 -2 -2 -37 14 -77 35 -41 22 -78
37 -82 35 -12 -8 -9 39 3 56 8 11 12 12 16 3 5 -14 33 -18 33 -5 0 15 43 30
77 27 17 -1 56 -17 86 -34z m-256 -46 c-4 -8 -11 -15 -17 -15 -7 0 -7 6 0 21
13 23 26 19 17 -6z m-259 -29 c28 -14 52 -23 52 -19 0 5 7 0 15 -11 12 -16 18
-17 42 -7 30 12 83 12 83 -1 0 -4 -4 -8 -10 -8 -5 0 -10 -4 -10 -10 0 -5 9
-10 20 -10 11 0 20 -5 20 -11 0 -6 10 -24 21 -41 12 -16 22 -40 22 -54 0 -17
14 -35 51 -63 28 -21 70 -57 93 -79 l42 -39 -30 -29 c-16 -16 -32 -38 -35 -49
-7 -28 23 -98 39 -89 7 4 9 3 4 -1 -10 -11 23 -46 36 -38 5 3 7 2 4 -4 -7 -12
34 -33 64 -33 65 0 111 68 90 133 -12 35 -50 76 -89 97 -38 19 -17 23 23 4 99
-47 116 -188 28 -233 -34 -17 -71 -13 -129 14 -83 39 -116 114 -79 184 8 16
12 31 8 34 -9 10 -43 -12 -43 -27 0 -8 -7 -16 -15 -20 -10 -3 -14 -14 -11 -30
3 -17 0 -23 -8 -20 -7 3 -13 -7 -14 -26 -1 -16 2 -30 8 -30 6 0 5 -8 -2 -20
-7 -11 -16 -20 -21 -20 -4 0 -5 5 -2 10 3 6 1 10 -4 10 -6 0 -11 -5 -11 -11 0
-5 -5 -7 -12 -3 -18 12 -88 22 -82 13 9 -15 -37 -10 -52 6 -14 13 -14 15 0 15
8 0 14 8 13 19 0 11 -6 17 -14 14 -7 -3 -13 0 -13 6 0 6 -9 11 -20 11 -14 0
-18 -5 -14 -17 4 -13 0 -11 -12 5 -19 26 -49 31 -40 6 5 -13 3 -14 -6 -7 -7 5
-32 8 -55 7 -36 -3 -43 0 -43 15 0 10 15 26 35 37 19 10 35 22 35 26 0 4 -12
0 -27 -8 -16 -7 -36 -14 -45 -14 -10 0 -18 -6 -18 -14 0 -7 -7 -19 -16 -26
-13 -11 -16 -10 -21 8 -3 12 -9 20 -13 17 -4 -3 -10 1 -13 9 -3 9 -18 13 -39
12 -37 -3 -84 24 -93 54 -4 11 -12 20 -20 20 -7 0 -16 7 -19 16 -4 10 -14 14
-26 11 -11 -3 -18 -1 -14 4 3 5 -3 9 -13 9 -10 0 -31 8 -48 18 -16 10 -42 22
-57 25 -16 4 -28 12 -28 17 0 6 -9 10 -20 10 -25 0 -25 14 2 70 12 25 20 50
20 56 -1 6 19 29 45 50 111 93 111 93 313 83 109 -5 132 -9 178 -33z m663 4
c5 0 9 -5 9 -12 0 -6 -3 -8 -7 -4 -4 3 -13 -6 -20 -21 l-13 -28 5 30 c4 22 3
26 -4 15 -12 -18 -26 -6 -17 16 4 10 12 14 22 10 9 -3 20 -6 25 -6z m-1241
-38 c0 -5 12 -13 28 -19 25 -10 24 -11 -23 -12 -27 -1 -62 -8 -77 -15 -26 -14
-28 -13 -28 3 0 28 -11 32 -38 15 -20 -13 -26 -14 -33 -3 -15 24 -10 28 34 32
83 7 137 7 137 -1z m-400 -17 c7 -8 16 -13 20 -10 5 3 6 -5 2 -17 -3 -14 -1
-19 6 -14 16 10 26 -38 13 -63 -11 -19 -50 -47 -55 -39 -37 51 -44 67 -39 91
3 16 1 27 -6 27 -6 0 -8 -8 -4 -17 6 -17 6 -17 -10 -1 -21 20 -21 28 -3 28 7
0 19 7 26 15 16 19 34 19 50 0z m1692 -10 c-2 -14 -8 -25 -13 -25 -5 0 -9 11
-9 25 0 14 6 25 14 25 9 0 12 -8 8 -25z m135 -17 c-3 -8 -6 -5 -6 6 -1 11 2
17 5 13 3 -3 4 -12 1 -19z m-1990 -14 c-3 -3 -12 -4 -19 -1 -8 3 -5 6 6 6 11
1 17 -2 13 -5z m1960 -16 c-3 -8 -6 -5 -6 6 -1 11 2 17 5 13 3 -3 4 -12 1 -19z
m-127 2 c0 -5 -5 -10 -11 -10 -5 0 -7 5 -4 10 3 6 8 10 11 10 2 0 4 -4 4 -10z
m-1828 -99 c3 -23 1 -27 -13 -24 -15 4 -16 9 -7 29 14 30 15 30 20 -5z m228 8
c0 -6 -4 -7 -10 -4 -5 3 -10 11 -10 16 0 6 5 7 10 4 6 -3 10 -11 10 -16z
m1380 1 c0 -5 -5 -10 -11 -10 -5 0 -7 5 -4 10 3 6 8 10 11 10 2 0 4 -4 4 -10z
m271 -17 c-8 -15 -10 -15 -11 -2 0 17 10 32 18 25 2 -3 -1 -13 -7 -23z m74
-23 c8 -13 -5 -13 -25 0 -13 8 -13 10 2 10 9 0 20 -4 23 -10z m-1848 -6 c-3
-3 -12 -4 -19 -1 -8 3 -5 6 6 6 11 1 17 -2 13 -5z m108 -35 c-10 -15 -25 -10
-19 6 4 8 10 12 15 9 5 -3 7 -10 4 -15z m1754 -72 c1 -26 -3 -39 -14 -43 -8
-3 -15 -12 -15 -20 0 -10 -13 -14 -47 -13 -47 1 -47 1 -16 11 24 8 33 18 37
43 4 18 4 39 1 47 -5 11 1 15 23 14 26 -1 29 -5 31 -39z m-363 18 c-3 -10 1
-15 11 -15 9 0 14 -3 10 -6 -12 -12 -37 5 -31 21 3 8 8 15 11 15 3 0 3 -7 -1
-15z m454 -10 c0 -8 -4 -15 -10 -15 -5 0 -10 7 -10 15 0 8 5 15 10 15 6 0 10
-7 10 -15z m190 -5 c19 -7 12 -8 -27 -7 -29 1 -53 5 -53 10 0 9 48 7 80 -3z
m35 -50 c3 -5 1 -10 -4 -10 -6 0 -11 5 -11 10 0 6 2 10 4 10 3 0 8 -4 11 -10z
m-619 -32 c5 -7 2 -8 -7 -3 -8 5 -11 4 -6 -1 5 -5 16 -9 24 -9 9 0 18 -10 19
-22 2 -13 0 -23 -4 -23 -16 0 -82 52 -77 61 9 13 42 11 51 -3z m321 -4 c-3 -3
-12 -4 -19 -1 -8 3 -5 6 6 6 11 1 17 -2 13 -5z m-1322 -30 c0 -11 -8 -19 -18
-20 -12 -1 -13 -1 -2 3 8 2 15 12 15 21 0 15 -2 15 -10 2 -8 -13 -11 -13 -22
-1 -10 10 -10 12 0 7 6 -4 12 -2 12 4 0 7 6 10 13 8 6 -3 12 -13 12 -24z m962
-7 c7 0 10 -3 8 -7 -2 -4 7 -12 20 -18 25 -11 35 -42 14 -42 -5 0 -7 5 -4 10
8 13 -8 13 -20 1 -6 -6 -20 -4 -35 4 -16 9 -19 14 -9 15 8 0 19 -3 25 -7 5 -5
-3 3 -18 17 -32 28 -37 46 -10 35 9 -4 22 -8 29 -8z m533 -13 c69 -9 152 -17
185 -19 242 -12 332 -17 343 -20 6 -3 12 -16 12 -30 0 -17 4 -24 11 -19 8 4 9
0 4 -15 -5 -17 -2 -21 14 -21 18 0 21 -6 21 -39 0 -22 6 -42 13 -45 9 -5 9 -7
0 -12 -7 -3 -9 -12 -6 -21 6 -14 -5 -15 -93 -9 -195 13 -307 28 -322 42 -7 8
-21 14 -29 14 -9 0 -13 3 -10 7 13 12 -26 43 -55 43 -16 0 -44 6 -62 14 -44
18 -177 48 -184 41 -3 -3 -1 -5 5 -5 6 0 13 -9 16 -21 3 -13 1 -19 -6 -16 -7
2 -12 8 -13 13 -2 22 -17 44 -35 49 -11 4 -16 11 -13 17 4 6 43 7 110 3 72 -5
104 -4 104 3 0 18 -36 32 -82 32 -24 0 -49 5 -56 12 -8 8 -15 8 -27 -2 -8 -7
-18 -10 -22 -6 -3 3 0 6 8 7 8 1 3 5 -11 9 -45 14 44 11 180 -6z m-2761 -16
c1 6 5 12 10 12 5 0 7 -10 4 -22 -4 -19 -3 -20 6 -8 10 13 11 13 11 0 0 -12 2
-13 9 -1 7 11 10 9 16 -9 4 -14 3 -25 -5 -30 -17 -10 19 -30 54 -30 14 0 26
-4 26 -10 0 -16 -33 -28 -79 -26 l-44 1 -13 55 c-7 30 -13 64 -13 75 l0 20 9
-20 c5 -11 9 -14 9 -7z m1216 2 c3 -5 1 -10 -4 -10 -6 0 -11 5 -11 10 0 6 2
10 4 10 3 0 8 -4 11 -10z m85 -9 c0 -25 -25 -34 -41 -15 -16 19 -4 30 16 14
13 -11 14 -10 9 4 -3 9 -1 16 5 16 6 0 11 -9 11 -19z m487 -6 c4 -4 3 -5 -4
-2 -6 4 -13 2 -15 -5 -3 -8 -6 -6 -10 4 -7 17 15 19 29 3z m-1651 -14 c0 -12
-6 -17 -18 -13 -10 2 -16 8 -13 12 3 5 -1 11 -7 13 -7 3 -2 6 12 6 19 1 26 -4
26 -18z m1955 -30 c-18 -32 -31 -25 -19 10 7 20 14 27 20 21 6 -6 6 -17 -1
-31z m-617 -2 c-3 -5 -10 -7 -15 -3 -5 3 -7 10 -3 15 3 5 10 7 15 3 5 -3 7
-10 3 -15z m-181 -41 c-8 -15 -33 20 -26 37 5 15 8 14 19 -6 7 -13 10 -27 7
-31z m1185 20 c-4 -17 -20 -28 -30 -22 -14 9 -9 22 10 27 9 3 18 5 20 6 1 0 1
-5 0 -11z m91 -25 c17 -14 20 -25 15 -50 -3 -18 -10 -30 -15 -27 -9 5 -10 0
-14 -59 -1 -15 -7 -33 -14 -40 -16 -16 -14 -43 5 -73 9 -13 15 -27 12 -29 -3
-3 -26 1 -51 9 -50 15 -64 12 -21 -5 15 -5 24 -12 20 -16 -8 -8 53 -45 63 -38
12 7 19 -51 9 -69 -8 -14 -15 -13 -56 8 -26 13 -55 33 -66 45 -10 11 -22 18
-26 16 -4 -3 -10 5 -13 17 -4 12 -2 25 3 28 5 3 5 11 0 20 -9 13 -10 13 -10 0
0 -13 -1 -13 -10 0 -6 9 -5 20 3 30 8 11 6 10 -8 -2 -25 -21 -89 -10 -110 19
-17 22 -19 33 -5 33 6 0 10 8 8 18 -2 11 4 18 20 20 12 2 22 9 22 16 0 19 46
55 77 61 15 2 29 9 31 15 2 5 9 7 14 3 7 -4 9 2 5 16 -3 15 1 24 14 32 11 5
23 8 27 5 4 -3 14 -1 22 5 21 12 25 11 49 -8z m816 -13 c3 -6 -1 -7 -9 -4 -18
7 -21 14 -7 14 6 0 13 -4 16 -10z m-517 -80 c89 -44 165 -80 169 -80 11 0 208
-123 226 -142 18 -18 22 -94 5 -104 -16 -10 -70 -7 -77 4 -3 6 -21 14 -40 17
-18 3 -42 12 -54 19 -12 8 -57 27 -100 42 -52 18 -74 30 -65 35 8 5 -2 8 -25
7 -22 -1 -42 4 -47 11 -4 7 -10 12 -14 10 -4 -1 -33 10 -64 24 -31 14 -79 35
-106 46 -36 16 -46 24 -39 33 13 16 33 98 33 132 0 18 5 26 18 26 9 0 90 -36
180 -80z m-233 61 c3 -5 0 -13 -6 -17 -7 -4 -9 -3 -5 4 3 5 0 13 -6 15 -9 4
-10 6 -1 6 6 1 14 -3 18 -8z m830 -1 c27 -7 25 -8 -17 -9 -27 0 -48 4 -48 9 0
11 21 11 65 0z m-1719 -146 c-3 -8 -18 -14 -33 -13 l-28 1 25 7 c20 5 26 15
29 46 l5 40 4 -33 c2 -19 1 -40 -2 -48z m-50 54 c4 -7 3 -8 -4 -4 -8 5 -12 -2
-12 -18 0 -17 -4 -24 -14 -20 -10 4 -15 36 -7 52 4 7 31 0 37 -10z m-101 -8
c4 -6 -5 -10 -20 -10 -15 0 -24 4 -20 10 3 6 12 10 20 10 8 0 17 -4 20 -10z
m-850 -10 c-26 -11 -45 -12 -45 -2 0 4 15 8 33 9 26 2 28 0 12 -7z m-1210 -31
c-4 -12 -2 -19 6 -19 7 0 10 -2 7 -5 -3 -3 -13 -3 -22 1 -16 6 -22 35 -10 47
12 12 25 -5 19 -24z m1956 9 c0 -10 2 -10 6 0 2 6 9 12 14 12 4 0 6 -6 3 -13
-2 -7 5 -23 16 -35 19 -20 19 -22 3 -23 -43 -2 -194 6 -213 11 -12 3 78 44
110 51 53 10 60 10 61 -3z m136 -7 c10 -17 8 -21 -19 -32 -21 -9 -35 -9 -47
-2 -25 16 -19 37 14 44 17 4 32 7 35 8 3 0 11 -8 17 -18z m948 -2 c-5 -15 -4
-19 4 -15 6 4 11 2 11 -4 0 -7 -7 -10 -15 -6 -8 3 -15 0 -15 -6 0 -6 -2 -9 -5
-6 -6 5 15 58 22 58 3 0 1 -10 -2 -21z m-657 -24 c34 -16 56 -33 62 -50 5 -14
13 -25 18 -25 5 0 9 -6 9 -14 0 -16 -79 -27 -217 -30 -43 -1 -83 -6 -87 -10
-4 -5 41 -5 102 -1 251 19 394 14 403 -14 3 -10 -6 -12 -42 -10 -27 3 -46 0
-46 -6 0 -5 -5 -3 -10 5 -5 8 -10 10 -10 4 0 -7 -10 -12 -22 -12 -31 1 -357
-31 -385 -37 -22 -5 -22 -3 -17 47 3 29 1 66 -5 82 -11 28 -11 28 16 22 16 -4
36 -9 46 -12 9 -3 17 -1 17 5 0 6 6 11 13 11 8 0 22 16 33 35 23 43 47 45 122
10z m1909 9 c-3 -3 -12 -4 -19 -1 -8 3 -5 6 6 6 11 1 17 -2 13 -5z m-4330 -32
c-25 -30 -30 -72 -10 -89 17 -13 16 -13 -4 -3 -29 14 -50 -17 -25 -37 15 -11
15 -12 2 -13 -9 0 -21 5 -28 12 -9 9 -12 9 -12 -1 0 -25 -64 -69 -75 -51 -6
10 2 72 12 100 3 8 5 27 4 43 -2 23 1 27 23 27 20 0 26 -5 26 -21 0 -11 4 -17
11 -14 5 4 8 12 6 18 -2 7 0 20 5 30 8 15 12 16 25 6 12 -11 17 -10 25 4 5 10
14 15 19 11 7 -4 5 -12 -4 -22z m63 -2 c0 -5 -4 -10 -10 -10 -5 0 -10 5 -10
10 0 6 5 10 10 10 6 0 10 -4 10 -10z m3753 -7 c-7 -2 -21 -2 -30 0 -10 3 -4 5
12 5 17 0 24 -2 18 -5z m-3783 -44 c0 -6 -4 -7 -10 -4 -5 3 -10 11 -10 16 0 6
5 7 10 4 6 -3 10 -11 10 -16z m1920 -13 c0 -2 -8 -10 -17 -17 -16 -13 -17 -12
-4 4 13 16 21 21 21 13z m1137 -9 c0 -7 -10 -14 -21 -14 -21 -2 -21 -2 -2 13
24 17 23 17 23 1z m-1297 -53 c0 -47 -3 -55 -16 -50 -9 3 -21 6 -29 6 -30 0
-27 85 3 93 40 11 42 8 42 -49z m1461 34 c49 -20 69 -34 69 -48 0 -3 -10 -16
-21 -30 l-21 -25 17 29 c20 34 16 38 -61 56 -30 7 -54 17 -54 22 0 18 -19 6
-39 -24 -25 -40 -28 -28 -4 13 21 35 42 36 114 7z m-1551 -3 c23 -14 9 -65
-30 -110 -22 -25 -43 -57 -46 -71 -3 -13 -10 -24 -15 -24 -5 0 -9 -6 -9 -14 0
-7 -11 -25 -25 -40 -14 -15 -25 -32 -25 -37 0 -6 -10 -19 -22 -30 l-23 -18 30
-25 c27 -22 29 -26 14 -40 -14 -15 -26 -13 -140 25 -69 22 -136 39 -151 36
-16 -2 -28 -2 -28 0 0 2 15 19 33 37 17 18 75 77 127 130 106 110 153 150 207
176 35 17 80 19 103 5z m220 -32 c0 -12 -3 -24 -7 -26 -5 -3 -8 12 -8 34 -1
22 2 33 7 26 4 -6 8 -22 8 -34z m1280 -8 c7 -8 21 -15 31 -15 11 0 19 -5 19
-11 0 -5 5 -7 10 -4 6 3 10 0 10 -8 0 -12 -8 -11 -47 2 -27 9 -53 20 -60 24
-7 4 -20 -5 -33 -23 -12 -17 -25 -29 -28 -25 -8 7 59 75 74 75 6 0 17 -7 24
-15z m639 -56 c-5 -28 -11 -54 -14 -57 -5 -6 5 90 11 97 2 2 -2 11 -9 20 -10
14 -10 14 4 4 13 -11 15 -22 8 -64z m-355 -10 l29 -18 -26 -12 c-15 -7 -27
-16 -27 -21 0 -14 -33 -9 -52 9 -17 15 -18 15 -18 0 0 -9 11 -24 24 -33 47
-30 59 -124 16 -124 -10 0 -22 -5 -26 -11 -3 -6 -9 -7 -13 -3 -10 14 -49 34
-68 34 -19 1 -53 23 -53 35 0 4 7 4 16 1 9 -3 12 -2 9 5 -4 5 -15 7 -25 4 -22
-7 -32 15 -16 36 13 18 72 49 93 49 9 0 12 7 8 23 -4 12 -1 35 4 50 l11 27 42
-17 c24 -9 56 -25 72 -34z m57 23 c-7 -2 -18 1 -23 6 -8 8 -4 9 13 5 13 -4 18
-8 10 -11z m-3331 -2 c0 -5 -5 -10 -11 -10 -5 0 -7 5 -4 10 3 6 8 10 11 10 2
0 4 -4 4 -10z m1783 -15 c64 -4 119 -10 121 -13 2 -4 -63 -3 -144 2 -114 7
-147 12 -143 22 3 9 12 10 26 5 12 -5 75 -12 140 -16z m162 -5 c-3 -5 -12 -10
-18 -10 -7 0 -6 4 3 10 19 12 23 12 15 0z m-1191 -12 c-5 -8 -2 -9 9 -5 12 5
19 -1 23 -19 5 -19 9 -22 15 -12 6 8 9 -2 9 -28 0 -25 -6 -47 -15 -54 -8 -7
-15 -10 -15 -6 0 4 -11 -1 -25 -10 -23 -15 -25 -15 -19 0 3 9 10 14 14 11 5
-3 11 -1 15 5 4 6 11 7 17 4 7 -5 8 -2 3 6 -6 9 -4 11 6 5 12 -7 12 -6 1 6
-11 12 -15 11 -23 -4 -6 -9 -14 -15 -19 -12 -5 3 -11 1 -14 -4 -3 -5 -15 -7
-26 -4 -11 3 -20 1 -20 -5 0 -5 -11 -9 -25 -9 -14 0 -25 4 -25 9 0 6 -6 8 -14
5 -9 -4 -17 8 -25 35 -15 47 -4 61 42 55 15 -2 27 1 27 6 0 5 14 7 31 5 22 -4
33 0 40 14 5 10 12 18 15 18 3 0 2 -5 -2 -12z m2087 -39 c-24 -21 -49 -39 -55
-39 -6 0 5 11 24 24 19 13 42 33 49 45 8 11 17 18 20 15 4 -3 -14 -24 -38 -45z
m-803 -147 c2 -177 2 -182 -18 -182 -19 0 -20 6 -20 186 0 171 1 185 18 182
15 -3 17 -21 20 -186z m52 173 c0 -8 7 -15 16 -15 8 0 12 5 9 10 -4 7 8 10 34
9 l40 -3 3 -157 3 -158 -27 -5 c-15 -3 -33 -4 -40 -2 -7 1 -10 1 -5 -1 18 -11
4 -23 -25 -23 l-33 0 -3 146 c-4 151 2 214 18 214 6 0 10 -7 10 -15z m257
-125 c1 -74 -1 -127 -6 -117 -6 15 -9 16 -17 5 -17 -21 -24 -48 -13 -48 6 0 7
-5 4 -10 -12 -19 -25 1 -19 27 5 18 3 24 -5 19 -6 -4 -11 -14 -11 -21 0 -9 -6
-12 -15 -9 -11 4 -15 -1 -16 -17 0 -23 -1 -23 -9 -4 l-9 20 -2 -20 c-5 -38
-14 150 -11 221 l3 71 37 9 c20 5 48 9 62 9 l25 0 2 -135z m1073 110 c64 -32
72 -48 51 -104 -8 -18 -15 -23 -30 -19 -12 3 -21 9 -21 13 0 7 -54 33 -77 36
-7 1 -17 -4 -24 -12 -6 -8 -9 -14 -6 -14 3 0 -5 -12 -18 -26 -13 -14 -24 -29
-23 -33 3 -27 -4 -42 -16 -38 -10 4 -13 1 -9 -9 3 -9 -1 -14 -11 -14 -9 0 -22
-5 -29 -10 -7 -6 -28 -24 -47 -41 -59 -52 -78 -55 -22 -4 54 48 164 187 184
231 l10 22 63 -28 c47 -21 65 -25 68 -16 3 8 -20 25 -59 44 l-65 32 -17 -30
c-25 -45 -36 -36 -12 10 11 22 27 40 35 40 9 0 42 -14 75 -30z m163 -8 c-3
-12 -13 -22 -22 -22 -14 0 -14 -2 -1 -10 20 -13 4 -13 -21 1 -25 13 -16 29 14
22 12 -3 19 -3 15 2 -4 4 -1 13 5 20 15 17 18 14 10 -13z m19 -44 c-8 -8 -9
-4 -5 13 4 13 8 18 11 10 2 -7 -1 -18 -6 -23z m-2102 -10 c0 -6 -7 -5 -15 2
-8 7 -15 17 -15 22 0 6 7 5 15 -2 8 -7 15 -17 15 -22z m487 -15 c-3 -10 -5 -2
-5 17 0 19 2 27 5 18 2 -10 2 -26 0 -35z m-1461 2 c-6 -18 -2 -19 27 -4 19 9
20 8 6 -3 -8 -7 -21 -22 -27 -33 -10 -17 -14 -12 -11 11 0 4 -5 11 -13 15 -10
7 -10 9 0 9 7 0 10 5 7 10 -3 6 -1 10 5 10 7 0 10 -7 6 -15z m3054 -28 c21 5
28 -11 10 -22 -5 -3 -10 -11 -10 -17 0 -6 2 -9 6 -6 10 10 76 -60 68 -73 -4
-8 -3 -9 4 -5 7 4 12 3 12 -3 0 -6 7 -8 16 -4 16 6 34 -12 34 -35 0 -10 -5
-10 -21 -2 -25 14 -36 6 -20 -14 14 -16 11 -47 -4 -58 -15 -11 -27 -10 -20 2
3 5 0 7 -8 4 -9 -3 -13 -13 -9 -26 4 -19 2 -20 -22 -14 -16 4 -25 3 -22 -2 3
-5 -12 -8 -34 -7 -55 3 -150 67 -150 101 0 31 34 66 56 57 11 -4 15 -2 11 4
-4 6 0 18 9 27 8 9 12 20 9 26 -3 5 1 10 10 10 9 0 13 5 10 10 -3 6 -1 10 5
10 6 0 9 4 5 9 -3 5 3 17 12 27 9 9 19 12 21 6 1 -5 12 -8 22 -5z m-1633 -59
c-2 -13 -4 -3 -4 22 0 25 2 35 4 23 2 -13 2 -33 0 -45z m1743 38 c0 -3 -4 -8
-10 -11 -5 -3 -10 -1 -10 4 0 6 5 11 10 11 6 0 10 -2 10 -4z m-1703 -38 c-3
-7 -5 -2 -5 12 0 14 2 19 5 13 2 -7 2 -19 0 -25z m831 25 c-10 -2 -28 -2 -40
0 -13 2 -5 4 17 4 22 1 32 -1 23 -4z m-2478 -7 c0 -3 -4 -8 -10 -11 -5 -3 -10
-1 -10 4 0 6 5 11 10 11 6 0 10 -2 10 -4z m223 -8 c4 -10 8 -9 16 2 9 13 14
13 38 -2 23 -14 29 -26 35 -70 13 -112 10 -156 -14 -172 -32 -23 -73 -20 -101
7 -22 20 -26 33 -31 119 -5 92 -4 98 17 113 26 18 34 19 40 3z m1349 1 c-12
-11 -151 -19 -157 -9 -3 5 23 11 57 12 89 5 109 5 100 -3z m968 -14 c0 -17 -6
-25 -17 -25 -15 0 -15 -1 2 -13 10 -8 15 -19 11 -25 -10 -17 -24 -15 -48 8
-12 11 -19 20 -15 20 4 0 3 9 -3 20 -9 17 -6 21 22 29 48 13 48 13 48 -14z
m-2396 -11 c3 -8 2 -12 -4 -9 -6 3 -10 10 -10 16 0 14 7 11 14 -7z m-164 0 c0
-2 -9 -8 -19 -14 -14 -7 -22 -7 -27 2 -4 7 -3 8 4 4 7 -4 12 -3 12 2 0 5 7 9
15 9 8 0 15 -2 15 -3z m3375 -4 c3 -5 2 -10 -4 -10 -5 0 -13 5 -16 10 -3 6 -2
10 4 10 5 0 13 -4 16 -10z m-1845 -14 c0 -8 -4 -18 -10 -21 -5 -3 -10 3 -10
14 0 12 5 21 10 21 6 0 10 -6 10 -14z m137 -98 c-2 -24 -4 -7 -4 37 0 44 2 63
4 43 2 -21 2 -57 0 -80z m410 50 c-3 -8 -6 -5 -6 6 -1 11 2 17 5 13 3 -3 4
-12 1 -19z m-1347 -95 c0 -2 -2 -3 -4 -3 -7 0 -76 97 -76 106 0 4 18 -17 40
-46 22 -29 40 -55 40 -57z m-567 83 c4 -10 -6 -23 -28 -36 -22 -13 -32 -26
-28 -36 3 -8 -1 -14 -11 -14 -9 0 -16 7 -16 15 0 8 5 15 11 15 5 0 7 5 4 10
-3 6 3 10 15 10 12 0 18 5 15 10 -4 6 -11 8 -16 5 -5 -3 -6 1 -2 10 3 9 9 13
12 8 3 -4 15 -10 25 -11 17 -3 18 -2 7 12 -8 9 -9 16 -3 16 5 0 12 -7 15 -14z
m2394 -2 c-3 -3 -12 -4 -19 -1 -8 3 -5 6 6 6 11 1 17 -2 13 -5z m-922 -20
c-21 -8 -170 -21 -180 -15 -5 3 8 9 30 12 45 7 165 10 150 3z m1055 -4 c0 -5
-9 -10 -19 -10 -12 0 -26 -12 -35 -31 -15 -30 -15 -31 4 -26 16 4 18 0 15 -22
-2 -14 -9 -42 -14 -61 -7 -23 -8 -36 -1 -38 5 -2 10 -24 10 -48 0 -43 -1 -44
-32 -44 -17 0 -28 -3 -25 -6 6 -7 24 -10 82 -14 17 -1 24 -4 18 -7 -8 -3 -13
-23 -13 -48 l0 -43 -52 -8 c-29 -4 -43 -10 -31 -12 13 -2 26 -16 34 -35 7 -18
18 -35 23 -39 7 -5 7 -8 -1 -8 -14 0 -6 -31 11 -42 7 -5 6 -8 -2 -8 -10 0 -12
-8 -7 -30 9 -40 -1 -68 -28 -76 -12 -4 -26 -13 -32 -21 -10 -13 -80 -22 -91
-11 -5 6 -6 7 -4 113 1 39 -2 89 -5 113 -7 39 -6 42 16 42 l24 1 -25 12 c-21
10 -25 19 -25 57 0 28 6 50 15 57 11 9 11 12 2 13 -8 0 -13 13 -12 33 0 103 2
123 16 149 24 47 4 88 -44 88 -13 0 -21 4 -18 9 8 13 246 14 246 1z m-1310
-11 c0 -8 -34 -9 -117 -5 -65 4 -119 9 -122 11 -2 3 50 5 117 5 83 0 122 -4
122 -11z m891 -21 c0 -10 2 -10 6 0 5 13 62 17 65 5 5 -28 4 -61 -3 -57 -5 3
-9 0 -9 -5 0 -6 5 -11 10 -11 6 0 10 -10 10 -21 0 -19 -4 -20 -32 -15 -18 4
-42 7 -53 7 l-20 1 20 8 c11 5 28 11 38 14 10 3 17 15 17 31 0 20 -5 25 -24
25 -31 0 -56 10 -56 21 0 14 30 11 31 -3z m-946 -13 c-72 -17 -115 -18 -115
-5 0 5 7 7 15 4 8 -4 15 -1 15 5 0 7 26 11 73 10 l72 -1 -60 -13z m142 -17
c-3 -7 -5 -2 -5 12 0 14 2 19 5 13 2 -7 2 -19 0 -25z m95 8 c4 -21 0 -25 -29
-31 -19 -3 -41 -9 -49 -12 -8 -3 -14 -1 -14 5 0 5 9 12 21 15 11 3 23 15 26
26 7 29 40 27 45 -3z m517 10 c-2 -2 -73 -10 -156 -17 -84 -7 -153 -17 -153
-22 0 -6 25 -8 60 -4 33 3 60 1 60 -4 0 -5 23 -9 50 -9 29 0 50 -5 50 -11 0
-5 -3 -8 -8 -5 -4 2 -76 6 -159 7 -129 3 -152 6 -156 20 -2 8 1 16 7 16 6 0
63 5 126 12 192 19 287 25 279 17z m-692 -81 c1 -48 -2 -75 -9 -75 -7 0 -6 -5
2 -15 10 -12 10 -15 -4 -15 -17 0 -19 13 -16 108 l1 53 -53 -7 c-59 -7 -60 5
-1 16 80 16 78 18 80 -65z m663 35 c0 -15 -7 -20 -25 -20 -23 0 -24 2 -15 20
6 11 17 20 25 20 8 0 15 -9 15 -20z m-2000 0 c0 -5 -5 -10 -11 -10 -5 0 -7 5
-4 10 3 6 8 10 11 10 2 0 4 -4 4 -10z m3068 -18 c40 -21 43 -43 5 -36 -37 7
-73 31 -73 49 0 16 15 13 68 -13z m-1536 2 c-5 -8 -7 -39 -4 -67 6 -67 -5 -57
-16 16 -6 39 -6 58 2 61 21 9 27 6 18 -10z m-1138 -64 c4 -34 10 -68 12 -75 4
-11 -2 -13 -28 -8 -18 2 -63 6 -100 6 -64 2 -66 3 -50 19 38 38 147 125 153
122 4 -2 9 -31 13 -64z m364 53 c-16 -2 -40 -2 -55 0 -16 2 -3 4 27 4 30 0 43
-2 28 -4z m262 -50 l-5 -58 -3 52 c-2 39 -7 53 -20 56 -11 3 -8 5 8 6 24 1 25
0 20 -56z m430 47 c-22 -14 -23 -108 -1 -113 9 -3 5 -5 -9 -6 -24 -1 -25 1
-23 61 1 35 2 64 3 66 0 1 10 2 23 2 18 0 19 -2 7 -10z m-495 -7 c-11 -3 -26
-10 -32 -15 -10 -8 -13 -6 -13 6 0 12 9 16 33 15 21 -1 25 -3 12 -6z m670 -3
c3 -5 1 -10 -4 -10 -6 0 -11 5 -11 10 0 6 2 10 4 10 3 0 8 -4 11 -10z m-1134
-24 c5 3 9 -2 9 -10 0 -10 -6 -13 -15 -10 -8 4 -15 14 -14 23 0 10 2 11 6 3 2
-6 9 -10 14 -6z m691 -38 c-3 -12 -8 -16 -14 -10 -6 6 -7 20 -3 32 9 28 25 8
17 -22z m-257 -18 c1 -22 -2 -40 -6 -40 -5 0 -9 21 -9 47 0 56 12 51 15 -7z
m-159 -6 c3 -13 10 -22 14 -19 5 3 11 1 14 -4 8 -13 -19 -21 -74 -21 -75 0
-81 6 -47 44 23 26 35 31 58 28 21 -3 31 -11 35 -28z m-936 16 c0 -5 -5 -10
-11 -10 -5 0 -7 5 -4 10 3 6 8 10 11 10 2 0 4 -4 4 -10z m758 -23 c2 -11 -3
-17 -16 -17 -15 0 -19 5 -15 20 6 24 26 21 31 -3z m1717 13 c-3 -5 -23 -9 -43
-9 l-37 2 35 7 c52 11 52 11 45 0z m-1681 -25 c3 -8 1 -15 -4 -15 -6 0 -10 7
-10 15 0 8 2 15 4 15 2 0 6 -7 10 -15z m523 -1 c-3 -3 -12 -4 -19 -1 -8 3 -5
6 6 6 11 1 17 -2 13 -5z m136 -1 c-13 -2 -35 -2 -50 0 -16 2 -5 4 22 4 28 0
40 -2 28 -4z m-600 -40 c-7 -2 -19 -2 -25 0 -7 3 -2 5 12 5 14 0 19 -2 13 -5z
m-516 -37 c-12 -9 -14 -16 -8 -21 6 -3 11 -1 11 5 0 8 11 9 33 5 47 -10 52
-20 16 -36 -25 -10 -34 -10 -37 -1 -2 7 -8 12 -14 12 -7 0 -6 -5 1 -14 10 -11
2 -20 -42 -45 -47 -26 -61 -30 -102 -25 -26 3 -58 12 -70 20 -12 8 -43 15 -68
16 -26 1 -41 6 -34 10 8 5 4 8 -10 8 -13 0 -23 5 -23 10 0 6 -7 10 -15 10 -8
0 -15 -4 -15 -8 0 -4 -10 -8 -22 -9 -13 0 -17 1 -10 4 20 8 14 26 -8 20 -10
-3 -18 -1 -17 3 1 5 -7 16 -18 25 -19 15 -18 15 12 0 18 -8 62 -21 99 -29 80
-17 180 -6 232 26 23 14 37 17 44 10 7 -7 20 -6 42 4 39 17 46 17 23 0z m233
-1 c1 26 30 -33 29 -59 0 -17 -3 -25 -6 -18 -2 6 -9 9 -15 6 -6 -4 -13 -3 -17
2 -7 10 -69 35 -88 37 -7 0 -13 4 -13 8 0 6 37 16 78 21 6 1 12 6 12 12 0 6 5
4 10 -4 5 -8 10 -10 10 -5z m1055 -6 c-4 -5 0 -9 9 -9 15 0 15 -10 -2 -51 -20
-49 -33 -111 -27 -126 4 -13 8 -12 24 6 17 20 38 30 27 13 -2 -4 3 -16 11 -27
10 -13 17 -16 20 -8 3 10 7 10 18 0 7 -7 9 -15 3 -18 -5 -3 -10 -16 -11 -27
-1 -12 -5 -22 -9 -22 -5 0 -6 11 -2 25 4 15 2 25 -5 25 -6 0 -10 -3 -10 -7 5
-32 -3 -93 -11 -88 -5 3 -10 1 -10 -4 0 -6 5 -11 11 -11 6 0 4 -7 -5 -15 -8
-8 -19 -15 -24 -15 -5 0 -12 -27 -16 -60 -4 -33 -11 -60 -16 -60 -16 0 -12 87
5 128 10 24 12 38 5 40 -14 5 -13 32 2 32 9 0 9 3 0 12 -7 7 -12 20 -12 30 0
10 -3 18 -7 18 -5 0 -7 43 -5 95 2 62 7 95 15 95 8 0 8 3 -1 12 -7 7 -12 17
-12 23 0 5 5 3 10 -5 8 -13 10 -12 10 3 0 10 5 15 10 12 6 -4 8 -11 5 -16z
m770 -44 c0 -30 -3 -55 -7 -55 -5 0 -8 -10 -7 -22 0 -22 1 -22 10 -3 7 14 8 7
4 -25 -5 -41 -3 -46 15 -47 18 -2 19 1 10 13 -8 8 -8 14 -2 14 14 0 22 -25 22
-66 0 -40 -19 -45 -51 -13 -20 20 -21 29 -17 118 3 53 3 89 0 81 -3 -8 -8 -17
-12 -20 -3 -3 -14 -16 -23 -30 -13 -19 -17 -21 -17 -7 0 9 -5 17 -10 17 -14 0
-4 -49 15 -70 16 -18 20 -35 6 -26 -5 3 -11 -2 -14 -12 -2 -9 -14 -41 -26 -70
-21 -52 -21 -53 -2 -50 11 2 21 -1 21 -7 3 -25 -12 -74 -26 -85 -12 -11 -14
-8 -12 19 1 17 6 31 10 31 4 0 8 7 8 15 0 24 -30 17 -32 -7 -2 -35 -3 -40 -26
-88 -15 -33 -18 -46 -9 -52 8 -5 7 -8 -5 -8 -16 0 -38 -51 -38 -88 0 -7 -5
-10 -10 -7 -6 4 -10 12 -9 18 1 7 -2 23 -7 37 l-8 25 -5 -23 c-3 -13 -10 -23
-16 -22 -5 1 -12 -7 -16 -17 -5 -12 -8 0 -10 32 -3 69 0 108 9 115 4 3 9 14
10 25 6 31 12 31 14 -1 1 -18 4 -11 8 21 l7 50 1 -58 c1 -35 -2 -56 -8 -52 -5
3 -3 -7 5 -22 8 -15 15 -41 15 -58 1 -38 8 -26 50 87 28 75 31 90 20 103 -13
16 -15 15 -27 -1 -7 -9 -10 -21 -7 -25 3 -5 -2 -9 -10 -9 -9 0 -16 -5 -16 -12
0 -6 -3 -9 -6 -5 -3 3 -3 33 1 67 6 49 10 60 24 57 9 -2 15 -9 13 -17 -3 -11
-1 -11 13 0 14 12 16 10 13 -15 -2 -18 2 -30 12 -33 8 -3 12 -1 8 3 -4 4 0 21
8 37 11 21 14 54 12 121 -1 63 2 100 12 117 l13 25 13 -30 c8 -18 13 -23 14
-13 0 23 35 80 43 71 4 -3 7 -1 7 5 0 6 6 9 13 7 7 -3 12 -25 12 -60z m-1524
-114 c5 -69 12 -134 15 -143 4 -13 0 -18 -13 -18 -16 0 -18 10 -17 111 1 61
-2 105 -6 98 -9 -13 -19 78 -12 100 11 32 25 -29 33 -148z m212 133 c-5 -13
-2 -15 15 -10 17 6 23 2 28 -18 3 -14 10 -26 14 -26 5 0 6 -9 3 -21 -4 -12 0
-25 8 -30 11 -7 9 -9 -6 -9 -17 0 -17 -2 -5 -10 13 -9 13 -10 0 -11 -10 0 -8
-3 5 -9 l20 -9 -20 -1 -20 -1 20 -9 c18 -8 18 -9 -5 -10 -23 -1 -23 -2 -5 -10
18 -8 18 -9 -5 -10 -23 -1 -23 -2 -5 -10 11 -5 14 -9 8 -9 -17 -1 -17 -41 0
-41 7 0 13 -10 14 -22 1 -11 6 -24 10 -27 4 -3 10 -17 12 -31 1 -13 12 -35 22
-49 18 -23 19 -23 19 -3 0 33 34 58 82 61 24 1 45 6 46 12 2 5 8 7 13 3 5 -3
9 3 9 13 0 15 2 16 10 3 6 -10 10 -11 10 -2 0 6 3 11 8 10 4 -1 18 5 32 14 14
9 42 19 63 22 l37 7 0 -49 c0 -56 -9 -67 -61 -77 -47 -9 -60 -18 -62 -43 -1
-22 -17 -32 -17 -11 0 6 -7 3 -16 -6 -9 -9 -19 -13 -23 -10 -3 4 2 11 11 16
10 5 15 16 12 24 -8 20 -21 19 -33 -4 -14 -26 10 -61 31 -44 9 8 19 9 28 3 13
-8 12 -10 -2 -10 -22 0 -23 -16 -2 -24 10 -4 13 -13 9 -25 -4 -14 3 -26 27
-45 20 -15 27 -26 18 -26 -8 0 -21 9 -28 20 -7 11 -17 20 -24 20 -6 0 -3 -10
8 -22 19 -23 19 -23 -2 -5 -24 20 -38 22 -28 5 4 -7 4 -10 -1 -6 -4 4 -15 2
-24 -4 -14 -11 -14 -10 0 7 9 11 14 26 12 33 -3 6 0 12 7 12 6 0 8 -4 5 -10
-3 -5 -1 -10 5 -10 7 0 10 6 7 13 -2 7 -20 11 -46 10 -31 -1 -48 4 -63 19 -20
20 -22 20 -35 3 -7 -11 -13 -25 -13 -32 0 -7 -7 -13 -15 -13 -8 0 -15 5 -15
12 0 6 -3 8 -7 5 -3 -4 -12 2 -20 13 -17 24 -43 26 -43 4 0 -9 -5 -12 -12 -8
-10 6 -10 4 0 -7 6 -7 12 -26 12 -41 0 -15 6 -28 13 -29 9 0 9 -2 -1 -6 -6 -2
-10 -9 -6 -14 3 -5 0 -9 -5 -9 -6 0 -11 -10 -10 -22 0 -13 3 -17 6 -10 6 16
20 15 20 -2 0 -21 -35 -27 -42 -7 -18 59 -33 671 -16 671 6 0 8 -7 4 -16z
m-126 -36 c-3 -7 -5 -2 -5 12 0 14 2 19 5 13 2 -7 2 -19 0 -25z m513 15 c0 -7
6 -13 13 -14 6 0 3 -4 -8 -9 -19 -8 -19 -9 3 -9 13 -1 22 -7 22 -17 0 -12 -3
-14 -13 -6 -10 9 -13 4 -14 -23 0 -27 3 -32 16 -28 11 4 10 1 -4 -10 -18 -15
-21 -15 -32 0 -12 15 -13 15 -13 1 0 -9 7 -24 16 -32 14 -15 14 -16 -1 -16 -9
0 -14 -4 -10 -10 3 -5 12 -7 20 -4 9 4 12 0 10 -13 -2 -10 -4 -21 -4 -25 -1
-5 -6 -8 -13 -8 -9 0 -9 3 -1 11 9 9 6 17 -13 32 -17 13 -22 22 -14 27 8 5 0
18 -22 40 -32 33 -33 33 -36 10 -2 -12 2 -26 8 -30 7 -4 11 -13 8 -20 -2 -7
-10 0 -17 14 -12 22 -12 32 -1 66 17 50 45 81 67 73 10 -4 14 -2 10 4 -3 5 0
10 8 10 8 0 15 -6 15 -14z m937 -15 c-3 -7 -5 -2 -5 12 0 14 2 19 5 13 2 -7 2
-19 0 -25z m-457 12 c-14 -4 -22 -8 -18 -9 4 -1 -4 -14 -19 -30 -25 -27 -53
-32 -53 -9 0 6 7 8 15 4 17 -6 20 4 5 22 -7 9 -7 9 2 2 18 -15 28 -12 21 7 -4
10 -2 14 5 9 6 -3 13 -2 17 4 3 5 16 10 28 9 20 -1 20 -2 -3 -9z m257 -32 c-3
-7 -5 -2 -5 12 0 14 2 19 5 13 2 -7 2 -19 0 -25z m823 22 c0 -5 -4 -10 -10
-10 -5 0 -10 5 -10 10 0 6 5 10 10 10 6 0 10 -4 10 -10z m1536 -17 c-10 -10
-19 5 -10 18 6 11 8 11 12 0 2 -7 1 -15 -2 -18z m-3269 -30 c-3 -10 -5 -2 -5
17 0 19 2 27 5 18 2 -10 2 -26 0 -35z m25 12 c-2 -14 -6 -25 -8 -25 -2 0 -4
11 -4 25 0 14 4 25 9 25 4 0 6 -11 3 -25z m45 3 c-3 -8 -6 -5 -6 6 -1 11 2 17
5 13 3 -3 4 -12 1 -19z m-180 -10 c-3 -8 -6 -5 -6 6 -1 11 2 17 5 13 3 -3 4
-12 1 -19z m20 -25 c-3 -10 -5 -2 -5 17 0 19 2 27 5 18 2 -10 2 -26 0 -35z
m979 -50 c-4 -12 -11 -23 -17 -23 -6 0 -7 5 -4 10 4 6 -9 11 -32 12 l-38 1 45
7 c25 4 39 8 33 8 -7 1 -13 7 -13 13 0 5 5 7 11 3 7 -4 9 2 7 17 -2 13 -9 23
-16 21 -8 -1 -11 2 -7 8 3 6 11 8 16 5 5 -4 10 0 11 7 1 7 3 -5 5 -26 3 -22 2
-50 -1 -63z m-832 71 c3 -8 2 -12 -4 -9 -6 3 -10 10 -10 16 0 14 7 11 14 -7z
m-747 -16 c-3 -8 -6 -5 -6 6 -1 11 2 17 5 13 3 -3 4 -12 1 -19z m1526 15 c-7
-2 -19 -2 -25 0 -7 3 -2 5 12 5 14 0 19 -2 13 -5z m74 -40 c-3 -10 -5 -2 -5
17 0 19 2 27 5 18 2 -10 2 -26 0 -35z m230 15 c-3 -7 -5 -2 -5 12 0 14 2 19 5
13 2 -7 2 -19 0 -25z m-937 2 c0 -5 -2 -10 -4 -10 -3 0 -8 5 -11 10 -3 6 -1
10 4 10 6 0 11 -4 11 -10z m-183 -47 c-3 -10 -5 -2 -5 17 0 19 2 27 5 18 2
-10 2 -26 0 -35z m1017 31 c3 -8 2 -12 -4 -9 -6 3 -10 10 -10 16 0 14 7 11 14
-7z m23 -16 c-3 -7 -5 -2 -5 12 0 14 2 19 5 13 2 -7 2 -19 0 -25z m-1373 -83
c5 -56 4 -76 -3 -65 -10 13 -16 159 -7 149 2 -2 7 -40 10 -84z m764 54 c-3 -8
-7 -3 -11 10 -4 17 -3 21 5 13 5 -5 8 -16 6 -23z m-451 -16 c-3 -10 -5 -4 -5
12 0 17 2 24 5 18 2 -7 2 -21 0 -30z m3064 16 c33 -13 49 -46 38 -77 -20 -54
-114 -95 -168 -72 -35 14 -61 50 -61 82 1 52 123 95 191 67z m-2353 -12 c14
-11 14 -89 0 -81 -4 3 -12 -5 -17 -18 -10 -22 -10 -22 -8 4 1 15 6 26 12 25 5
-1 11 10 13 24 2 20 -2 28 -17 32 -11 3 -25 -1 -32 -9 -6 -8 -7 -14 -3 -14 14
0 10 -96 -5 -113 -21 -26 -47 -17 -49 17 -2 16 0 27 4 23 4 -4 12 -2 19 3 15
12 17 -19 2 -37 -6 -9 -6 -13 1 -13 26 0 34 41 14 76 -6 12 -8 25 -4 29 4 5 1
5 -6 1 -7 -5 -11 -15 -8 -23 3 -8 1 -11 -4 -8 -6 4 -9 14 -8 23 2 10 -10 23
-32 34 -31 16 -31 17 -7 12 17 -4 27 -2 27 6 0 6 -4 8 -10 5 -5 -3 -10 -2 -10
4 0 13 111 11 128 -2z m133 4 c-7 -5 -11 -13 -7 -19 3 -6 2 -13 -4 -17 -5 -3
-10 3 -10 14 0 10 -6 22 -12 24 -7 3 1 6 17 6 21 0 26 -2 16 -8z m112 2 c-7
-2 -19 -2 -25 0 -7 3 -2 5 12 5 14 0 19 -2 13 -5z m104 -35 c-3 -7 -5 -2 -5
12 0 14 2 19 5 13 2 -7 2 -19 0 -25z m100 -15 c-3 -10 -5 -2 -5 17 0 19 2 27
5 18 2 -10 2 -26 0 -35z m-1793 -22 c9 -24 26 -56 37 -70 12 -15 16 -27 10
-29 -13 -4 -15 -32 -2 -32 5 0 11 -18 13 -40 2 -22 0 -40 -4 -40 -5 0 -8 11
-8 25 0 14 -4 25 -10 25 -5 0 -10 7 -10 15 0 8 -9 29 -20 47 l-20 33 0 -30 c0
-16 13 -56 29 -88 19 -39 24 -57 15 -53 -12 4 -12 2 -4 -14 6 -11 14 -20 18
-20 4 0 8 -9 9 -20 1 -11 -2 -20 -8 -20 -5 0 15 -24 44 -53 51 -53 94 -83 104
-74 2 3 -5 11 -18 17 -12 7 -37 26 -56 43 -32 29 -33 31 -16 51 10 12 11 16 4
9 -11 -9 -17 -9 -28 3 -16 15 -8 58 8 48 5 -3 7 -15 4 -25 -5 -14 -3 -19 7
-17 7 1 14 -1 15 -5 1 -4 12 -21 25 -37 37 -46 63 -84 63 -92 0 -12 34 -48 45
-48 6 0 8 5 5 10 -8 12 5 13 24 1 11 -7 5 -11 -22 -16 -42 -8 -69 7 -157 89
-30 28 -47 42 -37 30 9 -11 17 -31 17 -44 0 -13 8 -32 17 -42 16 -18 16 -19
-3 -13 -16 6 -17 5 -4 -7 8 -7 30 -33 49 -57 34 -43 34 -44 15 -60 -20 -16
-24 -23 -24 -41 0 -5 -5 -10 -11 -10 -5 0 -8 4 -5 9 3 5 -1 12 -10 15 -9 3
-12 11 -8 18 5 9 3 9 -9 -1 -10 -8 -17 -28 -17 -47 0 -20 -5 -34 -12 -34 -9 0
-8 -3 2 -10 22 -14 5 -23 -20 -10 -14 7 -19 17 -15 29 3 11 -2 24 -12 32 -15
11 -16 11 -5 -1 6 -8 12 -19 12 -24 0 -6 -7 -3 -15 7 -7 11 -12 24 -9 31 6 15
-21 68 -29 59 -4 -3 -7 10 -7 31 0 22 4 35 10 31 5 -3 7 0 4 8 -6 16 -20 17
-43 3 -10 -6 -12 -5 -7 3 6 8 0 10 -18 5 l-26 -6 0 73 c0 41 5 92 10 114 5 22
8 40 7 41 -9 8 -105 12 -116 5 -7 -4 -17 -30 -22 -57 -5 -27 -12 -57 -15 -66
-3 -10 -1 -18 5 -18 6 0 11 12 12 28 1 15 5 38 10 52 5 16 7 -12 3 -77 l-5
-101 23 6 c22 5 22 5 6 -12 -13 -12 -18 -34 -19 -74 0 -31 -4 -84 -8 -117 -4
-33 -4 -62 0 -65 4 -3 6 -46 5 -95 -2 -53 1 -97 8 -107 9 -14 6 -21 -12 -33
-28 -20 -28 -29 1 -44 20 -10 19 -11 -13 -6 -54 8 -64 24 -46 71 18 48 27 149
14 162 -6 6 -6 17 1 30 14 27 21 123 8 115 -6 -4 -7 11 -1 43 4 27 8 71 9 98
l0 49 -104 -2 c-97 0 -109 2 -164 29 -32 17 -66 29 -75 28 -11 -2 -16 3 -14
15 3 19 -34 25 -40 6 -2 -6 -33 -13 -68 -16 -36 -2 -78 -9 -93 -15 -43 -17
-56 4 -19 31 17 11 37 21 45 21 23 0 47 11 47 21 0 5 -12 9 -27 9 l-28 1 31
13 c46 20 48 33 9 39 -36 6 -130 72 -176 125 -35 38 -45 84 -24 102 13 11 29
11 87 0 l72 -12 37 43 c33 39 41 43 100 51 35 4 76 10 90 14 23 5 32 0 60 -38
l34 -45 64 30 c82 37 119 38 168 5 31 -21 54 -27 127 -32 l88 -6 -6 34 c-4 19
-3 37 2 40 5 3 7 18 4 33 -6 39 11 19 32 -36z m506 29 c0 -5 -2 -10 -4 -10 -3
0 -8 5 -11 10 -3 6 -1 10 4 10 6 0 11 -4 11 -10z m217 -12 c-3 -8 -6 -5 -6 6
-1 11 2 17 5 13 3 -3 4 -12 1 -19z m873 3 c0 -6 -4 -12 -8 -15 -5 -3 -9 1 -9
9 0 8 4 15 9 15 4 0 8 -4 8 -9z m-1499 -85 c-7 -9 -7 -17 2 -26 8 -9 8 -11 0
-6 -6 3 -13 1 -15 -6 -5 -15 -44 48 -54 87 l-7 29 42 -33 c30 -24 39 -37 32
-45z m1344 64 c3 -5 1 -10 -4 -10 -6 0 -11 5 -11 10 0 6 2 10 4 10 3 0 8 -4
11 -10z m-349 -22 c-3 -13 -5 -34 -6 -48 -1 -23 -2 -23 -9 -5 -5 11 -7 26 -5
33 10 34 14 42 19 42 3 0 3 -10 1 -22z m-380 0 c4 -7 3 -10 -1 -5 -5 4 -17 0
-27 -10 -22 -20 -24 -11 -2 11 19 19 21 19 30 4z m1031 -20 c-3 -7 -5 -2 -5
12 0 14 2 19 5 13 2 -7 2 -19 0 -25z m-278 -12 c0 -26 -2 -28 -9 -11 -7 17 -9
15 -9 -12 -1 -17 -5 -34 -9 -37 -4 -2 -7 8 -6 22 1 15 3 36 3 48 1 11 8 21 16
21 10 0 15 -10 14 -31z m-429 14 c0 -5 -2 -10 -4 -10 -3 0 -8 5 -11 10 -3 6
-1 10 4 10 6 0 11 -4 11 -10z m732 -25 c-6 -34 -12 -32 -12 6 0 16 4 28 9 25
4 -3 6 -17 3 -31z m-45 -10 c0 -22 -14 -18 -20 4 -3 13 0 18 7 15 7 -3 13 -11
13 -19z m-1435 -10 c24 4 40 4 37 1 -10 -10 -109 -24 -130 -19 -11 3 -19 10
-19 15 0 5 5 6 10 3 6 -3 13 1 16 10 6 14 8 14 25 -1 14 -12 28 -14 61 -9z
m1455 3 c-3 -8 -6 -5 -6 6 -1 11 2 17 5 13 3 -3 4 -12 1 -19z m-1597 -16 c0
-8 -1 -13 -3 -11 -1 2 -9 12 -16 22 -12 15 -12 17 3 11 9 -3 16 -13 16 -22z
m1537 -4 c-3 -7 -5 -2 -5 12 0 14 2 19 5 13 2 -7 2 -19 0 -25z m-677 -18 c0
-22 -4 -40 -9 -40 -5 0 -8 8 -6 18 2 9 4 27 4 40 2 39 11 24 11 -18z m1110 24
c0 -2 -11 -4 -25 -4 -14 0 -25 4 -25 9 0 4 11 6 25 3 14 -2 25 -6 25 -8z
m-785 -14 c-3 -5 -1 -11 5 -15 5 -3 10 1 10 9 0 9 7 16 15 16 8 0 15 -5 15
-11 0 -5 -6 -7 -12 -3 -10 6 -10 4 0 -7 15 -16 17 -93 1 -84 -6 4 -9 1 -7 -6
1 -8 0 -14 -3 -14 -2 0 -17 -8 -31 -17 -23 -15 -29 -16 -41 -3 -8 8 -18 11
-21 7 -4 -3 -5 9 -2 28 6 33 5 34 -9 16 -8 -11 -15 -16 -15 -12 0 14 37 56 44
49 3 -3 7 2 8 13 0 10 2 24 3 29 2 6 3 13 4 17 0 3 10 4 21 1 11 -3 18 -9 15
-13z m-308 -22 c-3 -7 -5 -2 -5 12 0 14 2 19 5 13 2 -7 2 -19 0 -25z m77 -57
c-12 -13 -21 19 -16 54 l6 40 7 -45 c3 -25 5 -47 3 -49z m609 69 c-3 -11 -7
-20 -9 -20 -2 0 -4 9 -4 20 0 11 4 20 9 20 5 0 7 -9 4 -20z m-439 1 c3 -4 -3
-16 -13 -25 -17 -16 -18 -15 -16 6 1 13 3 24 4 26 3 5 20 1 25 -7z m-1163 -22
c8 -15 8 -19 0 -15 -6 4 -11 2 -11 -5 0 -18 -10 -5 -15 20 -5 27 11 27 26 0z
m959 6 c11 -13 10 -14 -4 -9 -11 4 -16 1 -16 -11 0 -9 -4 -13 -10 -10 -6 4
-10 -5 -10 -19 0 -14 -4 -26 -9 -26 -13 0 0 51 18 72 19 22 16 21 31 3z m-836
-11 c9 -23 8 -24 -13 -24 -14 0 -18 5 -14 20 6 24 19 26 27 4z m1273 -6 c-3
-8 -6 -5 -6 6 -1 11 2 17 5 13 3 -3 4 -12 1 -19z m-503 -30 c-2 -3 -13 -6 -24
-5 -24 2 -18 13 9 13 11 0 18 -4 15 -8z m1264 -115 c-1 -29 -3 -53 -5 -53 -13
0 -52 34 -47 41 3 5 1 9 -5 9 -10 0 -9 37 4 87 4 18 11 30 16 27 5 -3 9 1 9 8
1 7 7 -5 16 -27 8 -22 13 -64 12 -92z m-2031 100 c-4 -3 -2 -12 4 -20 9 -10 7
-13 -9 -13 -15 0 -19 5 -15 20 3 11 10 20 16 20 6 0 7 -3 4 -7z m736 -44 c-8
-29 -13 -23 -13 14 0 22 3 28 9 18 5 -7 6 -22 4 -32z m668 4 c-4 -35 -5 -36
-12 -13 -6 20 -7 16 -8 -20 -1 -39 -4 -46 -21 -46 -15 0 -19 6 -15 25 2 13 9
27 15 31 7 4 11 11 9 15 -2 8 23 45 31 45 3 0 4 -17 1 -37z m-596 8 c-9 -8
-36 -10 -30 -2 2 4 11 8 20 8 8 0 13 -3 10 -6z m665 -30 c0 -35 -3 -40 -31
-50 -44 -15 -49 -14 -49 9 0 11 5 20 11 20 5 0 8 -4 5 -9 -8 -13 27 -8 42 6 6
6 12 23 12 37 0 14 2 26 5 26 3 0 5 -18 5 -39z m-710 20 c0 -6 -4 -13 -10 -16
-5 -3 -10 1 -10 9 0 9 5 16 10 16 6 0 10 -4 10 -9z m-760 -21 c0 -5 -4 -10
-10 -10 -5 0 -10 5 -10 10 0 6 5 10 10 10 6 0 10 -4 10 -10z m1127 -15 c-7 -7
-14 -13 -17 -13 -19 1 -23 -4 -10 -12 13 -8 12 -10 -2 -10 -22 0 -22 5 -1 34
10 13 23 21 30 19 9 -4 9 -8 0 -18z m-530 -7 c-3 -8 -6 -5 -6 6 -1 11 2 17 5
13 3 -3 4 -12 1 -19z m151 5 c-10 -2 -26 -2 -35 0 -10 3 -2 5 17 5 19 0 27 -2
18 -5z m49 -15 c-3 -8 -6 -5 -6 6 -1 11 2 17 5 13 3 -3 4 -12 1 -19z m-57 -8
c-13 -9 -13 -10 0 -10 12 -1 12 -2 -2 -10 -11 -7 -15 -18 -11 -33 12 -46 8
-92 -7 -95 -12 -2 -15 10 -13 65 1 38 3 70 4 73 1 3 1 8 0 13 0 4 9 7 22 7 18
0 19 -2 7 -10z m-899 -27 c13 -16 12 -17 -3 -4 -10 7 -18 15 -18 17 0 8 8 3
21 -13z m765 -29 c0 -19 -3 -30 -7 -23 -5 9 -8 8 -12 -2 -2 -8 -3 -5 -1 5 4
24 -12 8 -19 -19 -4 -18 -5 -17 -6 3 -1 26 22 55 34 44 5 -4 5 -2 1 5 -5 9
-15 8 -41 -3 -21 -8 -35 -10 -35 -4 0 5 9 10 19 10 11 0 23 5 26 10 3 6 14 10
23 10 13 0 17 -9 18 -36z m-103 3 c3 -7 -3 -13 -14 -14 -15 -1 -16 1 -6 12 15
18 14 18 20 2z m604 7 c-3 -3 -12 -4 -19 -1 -8 3 -5 6 6 6 11 1 17 -2 13 -5z
m-560 -36 c-3 -8 -6 -5 -6 6 -1 11 2 17 5 13 3 -3 4 -12 1 -19z m-133 -4 c3
-8 2 -12 -4 -9 -6 3 -10 10 -10 16 0 14 7 11 14 -7z m116 -3 c0 -10 -9 -21
-20 -24 -15 -4 -20 0 -20 15 0 17 2 18 16 8 8 -8 14 -9 13 -4 -2 13 0 24 6 24
3 0 5 -8 5 -19z m-73 -8 c0 -7 -6 -13 -12 -13 -6 0 -12 6 -12 13 0 8 6 14 12
14 6 0 12 -6 12 -14z m-877 -37 c0 -3 -4 -8 -10 -11 -5 -3 -10 -1 -10 4 0 6 5
11 10 11 6 0 10 -2 10 -4z m-847 -86 c-7 -28 -13 -25 -13 6 0 14 4 23 9 20 5
-3 7 -15 4 -26z m-47 -17 c-11 -11 -17 4 -9 23 7 18 8 18 11 1 2 -10 1 -21 -2
-24z m974 -15 c0 -38 -5 -34 -13 10 -4 21 -3 31 3 27 6 -3 10 -20 10 -37z
m367 20 c-3 -8 -6 -5 -6 6 -1 11 2 17 5 13 3 -3 4 -12 1 -19z m-1387 -8 c0 -5
-7 -10 -16 -10 -8 0 -12 5 -9 10 3 6 10 10 16 10 5 0 9 -4 9 -10z m1087 -72
c-3 -8 -6 -5 -6 6 -1 11 2 17 5 13 3 -3 4 -12 1 -19z m263 -18 c0 -6 8 -10 18
-10 11 0 13 -3 5 -8 -6 -4 -23 -27 -37 -52 -29 -51 -33 -50 -11 3 8 19 11 38
7 42 -4 5 -1 5 6 1 12 -7 17 6 6 17 -7 7 -48 -40 -50 -58 0 -5 -2 -16 -2 -22
-1 -7 -9 -13 -17 -13 -8 0 -15 -4 -15 -9 0 -15 28 -33 40 -26 6 4 4 -10 -6
-32 -9 -21 -20 -51 -24 -68 l-8 -30 -1 28 c-1 15 -9 35 -19 45 -22 22 -44 80
-36 94 3 5 0 15 -6 23 -15 18 1 20 17 4 9 -9 11 -7 7 8 -3 12 -1 23 4 27 5 3
8 -11 7 -33 -2 -31 0 -37 10 -28 7 7 11 16 8 20 -3 5 3 15 13 23 11 9 12 12 4
8 -10 -5 -9 0 4 14 14 16 16 25 8 35 -9 10 -9 16 0 25 12 12 68 -11 68 -28z
m-347 -57 c-8 -31 -12 -65 -9 -76 3 -12 1 -16 -4 -11 -5 5 -12 32 -15 60 -6
40 -4 54 10 67 29 29 34 19 18 -40z m86 43 c7 -8 8 -17 3 -20 -6 -3 -12 3 -15
14 -6 24 -4 25 12 6z m345 -48 c64 -49 115 -114 109 -138 -3 -11 -9 -20 -14
-20 -5 0 -9 -7 -9 -15 0 -20 -35 -19 -59 2 -23 19 -51 26 -51 12 0 -5 -6 -9
-14 -9 -9 0 -14 9 -13 20 1 11 8 20 17 20 24 0 40 21 40 53 0 19 -4 27 -12 24
-7 -2 -12 -10 -10 -16 1 -7 -2 -10 -7 -6 -6 3 -8 12 -5 19 7 18 -16 32 -26 16
-5 -9 -9 -9 -14 -1 -4 6 -2 11 3 11 6 0 11 7 11 16 0 8 -5 12 -11 9 -6 -4 -5
2 3 14 7 12 15 21 17 21 2 0 22 -14 45 -32z m-286 -33 c-3 -3 -13 7 -23 22
l-17 28 23 -22 c12 -12 20 -25 17 -28z m1768 20 c-9 -13 -16 -35 -16 -48 0
-23 -35 -66 -45 -56 -9 10 17 85 38 107 28 30 43 28 23 -3z m-2069 -17 c-3 -7
-5 -2 -5 12 0 14 2 19 5 13 2 -7 2 -19 0 -25z m330 -15 c-4 -3 0 -14 9 -24 12
-13 12 -19 3 -25 -7 -4 -10 -3 -6 3 4 6 0 16 -8 23 -14 11 -12 30 2 30 4 0 3
-3 0 -7z m1829 -48 c-43 -32 -327 -106 -401 -104 -16 0 17 11 75 24 127 28
241 58 295 79 51 19 54 19 31 1z m-371 -5 c-27 -12 -43 -12 -25 0 8 5 22 9 30
9 10 0 8 -3 -5 -9z m-1238 -6 c-3 -3 -12 -4 -19 -1 -8 3 -5 6 6 6 11 1 17 -2
13 -5z m461 -39 c28 -4 52 -10 52 -14 0 -5 -35 -2 -77 6 -43 7 -100 15 -127
18 -51 6 -66 11 -66 25 0 4 37 0 83 -10 45 -10 106 -21 135 -25z m703 20 c-18
-8 -38 -15 -45 -14 -15 1 46 28 64 28 8 0 0 -6 -19 -14z m139 -5 c-8 -5 -19
-10 -25 -10 -5 0 -3 5 5 10 8 5 20 10 25 10 6 0 3 -5 -5 -10z m-60 -25 c-14
-8 -29 -14 -35 -14 -5 0 1 6 15 14 14 8 30 14 35 14 6 0 -1 -6 -15 -14z m674
0 c7 -18 -49 -51 -59 -35 -4 6 -3 9 2 8 19 -5 52 14 46 28 -3 7 -3 14 0 14 3
0 7 -7 11 -15z m-2484 -33 c0 -16 -7 -37 -15 -48 -14 -18 -15 -17 -9 11 14 71
24 86 24 37z m360 18 c0 -5 -5 -10 -11 -10 -5 0 -7 5 -4 10 3 6 8 10 11 10 2
0 4 -4 4 -10z m1213 3 c-7 -2 -19 -2 -25 0 -7 3 -2 5 12 5 14 0 19 -2 13 -5z
m-968 -34 c28 -10 43 -18 35 -18 -17 -1 -119 35 -129 45 -7 7 19 0 94 -27z
m328 24 c-7 -2 -19 -2 -25 0 -7 3 -2 5 12 5 14 0 19 -2 13 -5z m450 -5 c-5
-10 -109 -9 -183 1 -42 6 -26 8 66 7 67 -1 120 -4 117 -8z m-400 -5 c-7 -2
-19 -2 -25 0 -7 3 -2 5 12 5 14 0 19 -2 13 -5z m44 -9 c-3 -3 -12 -4 -19 -1
-8 3 -5 6 6 6 11 1 17 -2 13 -5z m591 -11 c-15 -2 -42 -2 -60 0 -18 2 -6 4 27
4 33 0 48 -2 33 -4z m-125 -10 c-13 -2 -35 -2 -50 0 -16 2 -5 4 22 4 28 0 40
-2 28 -4z m232 -3 c4 -6 -8 -10 -27 -11 -18 0 -28 -2 -23 -5 6 -2 9 -21 8 -41
-1 -21 -2 -71 -2 -111 -1 -50 -4 -71 -12 -66 -7 4 -10 41 -7 108 l3 101 -63 0
c-56 0 -65 -3 -85 -27 -31 -38 -94 -46 -132 -17 -31 25 -82 31 -188 20 -60 -5
-74 -4 -65 5 8 7 57 14 120 16 103 5 108 4 128 -19 17 -20 26 -22 63 -17 26 4
50 15 65 31 17 18 37 26 85 32 90 12 125 12 132 1z m-1038 -6 c-3 -3 -12 -4
-19 -1 -8 3 -5 6 6 6 11 1 17 -2 13 -5z m596 -1 c-18 -2 -48 -2 -65 0 -18 2
-4 4 32 4 36 0 50 -2 33 -4z m-546 -9 c-3 -3 -12 -4 -19 -1 -8 3 -5 6 6 6 11
1 17 -2 13 -5z m731 0 c33 -9 27 -24 -10 -24 -50 0 -83 11 -66 21 15 10 44 11
76 3z m-453 -18 c11 -2 -45 -3 -125 -3 -80 -1 -131 2 -115 6 28 6 196 4 240
-3z m712 -8 c-3 -8 -6 -5 -6 6 -1 11 2 17 5 13 3 -3 4 -12 1 -19z m782 -18 c0
-10 -3 -8 -9 5 -12 27 -12 43 0 25 5 -8 9 -22 9 -30z m-1955 19 c-3 -6 0 -15
7 -20 12 -7 12 -9 0 -9 -11 0 -9 -5 5 -21 19 -22 19 -22 -6 -14 l-25 7 23 -24
c24 -26 30 -44 10 -32 -8 5 -9 2 -4 -11 5 -14 4 -16 -7 -7 -8 7 -18 8 -23 4
-4 -4 -3 0 4 10 10 12 10 18 1 24 -8 4 -9 3 -5 -4 4 -8 0 -12 -12 -12 -14 0
-19 6 -18 23 1 12 -1 32 -6 44 -5 16 -4 22 5 20 7 -1 11 4 9 11 -1 8 1 11 6 8
4 -2 14 -1 22 5 20 12 23 11 14 -2z m-587 -21 c-3 -8 -6 -5 -6 6 -1 11 2 17 5
13 3 -3 4 -12 1 -19z m760 16 c-3 -3 -12 -4 -19 -1 -8 3 -5 6 6 6 11 1 17 -2
13 -5z m860 -16 c-3 -8 -6 -5 -6 6 -1 11 2 17 5 13 3 -3 4 -12 1 -19z m350 0
c-3 -8 -6 -5 -6 6 -1 11 2 17 5 13 3 -3 4 -12 1 -19z m-1260 6 c-3 -3 -12 -4
-19 -1 -8 3 -5 6 6 6 11 1 17 -2 13 -5z m-248 -83 c0 -43 -3 -59 -8 -46 -5 11
-8 37 -7 58 0 20 -2 37 -5 37 -3 0 -6 6 -6 14 0 8 6 12 14 9 9 -4 13 -25 12
-72z m211 75 c0 -2 -7 -7 -16 -10 -8 -3 -12 -2 -9 4 6 10 25 14 25 6z m560
-16 c-6 -11 -13 -20 -15 -20 -2 0 -3 9 -2 20 1 11 7 20 14 20 11 0 11 -5 3
-20z m90 4 c0 -8 -4 -12 -10 -9 -5 3 -10 10 -10 16 0 5 5 9 10 9 6 0 10 -7 10
-16z m25 -46 c-7 -84 -15 -86 -15 -5 0 37 4 67 10 67 6 0 8 -24 5 -62z m-475
33 c0 -5 -13 -11 -30 -13 -16 -3 -30 -1 -30 3 0 7 10 10 53 18 4 0 7 -3 7 -8z
m1169 0 c7 -5 9 -11 5 -14 -5 -3 -15 1 -22 9 -14 16 -5 18 17 5z m-1396 -48
c-3 -27 -10 -55 -14 -63 -7 -11 -8 -8 -5 10 3 14 8 42 11 63 9 54 16 46 8 -10z
m1307 15 c0 -31 -1 -31 -16 -12 -13 16 -15 16 -10 2 6 -21 -19 -48 -42 -47
-11 0 -12 2 -4 6 6 2 12 13 12 23 0 10 -6 20 -12 23 -8 3 -6 7 7 12 11 3 27
10 35 15 25 15 30 11 30 -22z m40 28 c0 -2 -7 -7 -16 -10 -8 -3 -12 -2 -9 4 6
10 25 14 25 6z m-1195 -16 c3 -6 -1 -7 -9 -4 -18 7 -21 14 -7 14 6 0 13 -4 16
-10z m1232 -25 c0 -8 -6 -16 -14 -19 -7 -3 -13 1 -13 8 0 8 6 17 13 19 6 3 12
6 13 6 0 1 1 -6 1 -14z m105 -27 c-7 -7 -12 -8 -12 -2 0 14 12 26 19 19 2 -3
-1 -11 -7 -17z m319 -54 c-5 -35 -9 -46 -10 -28 -1 34 9 97 15 91 2 -2 0 -30
-5 -63z m-381 41 c19 -23 -34 -32 -57 -10 -16 17 -16 17 5 11 13 -5 22 -3 22
3 0 16 15 14 30 -4z m-2121 -59 c-9 -8 -10 -5 -5 14 3 14 6 32 7 40 1 8 4 2 6
-14 3 -16 -1 -34 -8 -40z m40 -17 c-16 -30 -20 -19 -12 37 l7 49 8 -33 c6 -20
5 -40 -3 -53z m77 49 c-3 -17 -13 -39 -21 -48 -8 -9 -15 -27 -16 -41 0 -13 -6
-40 -13 -59 l-13 -35 -5 35 c-3 22 2 51 13 78 11 24 19 54 19 66 0 26 8 36 28
36 11 0 13 -8 8 -32z m707 12 c-3 -11 -12 -20 -19 -20 -8 0 -15 -10 -15 -22
l-2 -23 -4 23 c-3 15 3 29 19 42 13 11 24 19 25 20 0 0 -1 -9 -4 -20z m114 14
c-3 -3 -12 -4 -19 -1 -8 3 -5 6 6 6 11 1 17 -2 13 -5z m50 0 c-3 -3 -12 -4
-19 -1 -8 3 -5 6 6 6 11 1 17 -2 13 -5z m50 0 c-3 -3 -12 -4 -19 -1 -8 3 -5 6
6 6 11 1 17 -2 13 -5z m-431 -13 c-3 -5 1 -11 9 -15 8 -3 15 -10 15 -16 0 -6
-12 -3 -26 6 -19 13 -22 19 -12 25 17 11 20 11 14 0z m1720 -37 c-5 -17 -3
-23 4 -19 5 3 10 -1 10 -11 0 -13 -3 -14 -15 -4 -16 13 -20 42 -8 53 12 13 15
7 9 -19z m-1721 -4 c32 -21 65 -26 65 -11 0 5 -8 12 -17 14 -14 4 -12 5 5 6
18 1 22 -4 22 -28 0 -17 -5 -33 -10 -36 -6 -4 -8 -15 -5 -25 9 -27 -10 -33
-66 -20 -53 13 -74 39 -58 70 4 8 10 23 13 33 7 22 14 21 51 -3z m156 -33
c-13 -13 -15 1 -4 30 7 17 8 17 11 -1 2 -10 -1 -23 -7 -29z m-25 -12 c-3 -8
-11 -15 -18 -14 -10 0 -10 2 0 6 6 2 12 14 13 26 0 12 3 16 6 9 3 -7 2 -19 -1
-27z m79 15 c3 -5 1 -10 -4 -10 -6 0 -11 5 -11 10 0 6 2 10 4 10 3 0 8 -4 11
-10z m-290 -21 c10 -30 0 -33 -13 -4 -6 14 -7 25 -2 25 5 0 12 -9 15 -21z
m348 14 c-7 -2 -19 -2 -25 0 -7 3 -2 5 12 5 14 0 19 -2 13 -5z m874 -25 c-3
-8 -6 -5 -6 6 -1 11 2 17 5 13 3 -3 4 -12 1 -19z m-360 -20 c-3 -7 -5 -2 -5
12 0 14 2 19 5 13 2 -7 2 -19 0 -25z m990 -42 c7 -16 11 -32 8 -34 -3 -3 -5 1
-5 9 0 11 -2 12 -9 1 -5 -9 -10 -1 -15 26 -3 22 -8 49 -11 59 -5 17 2 3 32
-61z m92 27 c0 -21 -3 -31 -6 -23 -3 8 -11 18 -17 22 -8 5 -7 8 2 8 6 0 12 7
12 15 0 8 2 15 5 15 3 0 5 -17 4 -37z m-62 -115 c-3 -7 -5 -2 -5 12 0 14 2 19
5 13 2 -7 2 -19 0 -25z m-1667 12 c0 -5 -7 -10 -15 -10 -8 0 -15 5 -15 10 0 6
7 10 15 10 8 0 15 -4 15 -10z m755 2 c16 -11 18 -44 4 -53 -19 -12 -29 -1 -29
32 0 29 7 35 25 21z m83 -16 c-10 -7 -16 -16 -13 -19 3 -4 2 -5 -2 -2 -3 3
-12 0 -20 -6 -9 -8 -13 -8 -13 -1 0 12 39 42 55 42 5 0 2 -7 -7 -14z m92 -1
c0 -16 -27 -32 -37 -21 -7 7 16 36 28 36 5 0 9 -7 9 -15z m-1670 -81 c-7 -36
-15 -63 -17 -60 -3 2 1 37 8 76 8 39 15 66 17 60 2 -6 -1 -40 -8 -76z m795 76
c3 -5 -1 -10 -9 -10 -8 0 -18 5 -21 10 -3 6 1 10 9 10 8 0 18 -4 21 -10z
m1345 -30 c0 -10 5 -20 12 -22 16 -6 0 -28 -20 -28 -15 0 -15 2 -2 10 8 5 11
10 5 10 -17 0 -95 -57 -87 -64 3 -4 -1 -4 -11 0 -18 7 -24 -10 -7 -21 6 -3 -1
-18 -15 -33 -14 -15 -25 -32 -25 -39 0 -7 -7 -10 -17 -6 -12 5 -14 3 -8 -7 6
-10 4 -12 -8 -7 -10 3 -17 3 -17 -1 0 -15 -82 -44 -93 -33 -8 8 -8 11 1 11 8
0 9 7 2 26 -13 34 -13 39 5 24 11 -9 19 -7 40 14 14 14 25 21 25 16 0 -5 12 2
27 16 27 25 50 27 45 5 -1 -7 2 -10 8 -6 8 5 7 11 -1 21 -9 11 -9 14 0 14 7 0
9 5 5 11 -9 15 16 30 39 23 12 -4 17 0 17 15 0 13 5 19 14 15 8 -3 17 -1 21 5
3 6 1 11 -5 11 -20 0 7 36 29 37 14 1 21 -4 21 -17z m318 -16 c-4 -3 -12 5
-18 18 -12 22 -12 22 6 6 10 -10 15 -20 12 -24z m-1768 6 c0 -6 -7 -13 -16
-17 -8 -3 -13 -12 -10 -19 3 -8 1 -14 -3 -14 -5 0 -11 7 -15 15 -8 22 -24 18
-28 -7 -2 -17 -11 -24 -30 -26 -19 -2 -28 1 -28 11 0 22 12 28 28 14 13 -10
15 -9 10 5 -5 11 0 18 15 23 12 5 31 11 42 15 29 11 35 11 35 0z m807 -17
c-18 -5 -18 -6 -1 -24 16 -17 16 -22 4 -29 -24 -15 -30 -12 -28 18 2 36 6 42
26 41 15 -1 14 -2 -1 -6z m-627 -28 c-10 -13 -9 -15 9 -15 11 0 21 5 21 12 0
7 7 5 18 -5 9 -8 31 -19 47 -23 17 -4 36 -11 43 -17 6 -5 12 -6 12 -1 0 4 6 2
12 -4 10 -10 10 -15 -2 -22 -21 -14 -33 -12 -24 3 5 7 1 7 -10 -2 -16 -14 -16
-15 6 -27 22 -12 22 -13 3 -19 -11 -4 -28 -11 -37 -16 -11 -5 -19 -5 -23 1 -3
6 -17 10 -31 10 -13 0 -33 9 -44 20 -19 19 -18 25 3 21 5 -1 11 8 14 19 3 11
12 20 19 20 8 0 14 7 14 15 0 11 -7 13 -29 9 -16 -3 -37 -1 -48 5 -16 10 -17
10 0 11 9 0 17 5 17 10 0 6 5 10 11 10 8 0 8 -5 -1 -15z m1250 -20 c0 -6 -9
-11 -20 -11 -19 0 -25 7 -15 18 9 9 35 5 35 -7z m387 -47 c-3 -8 -6 -5 -6 6
-1 11 2 17 5 13 3 -3 4 -12 1 -19z m-831 -14 c8 -30 -19 -94 -38 -94 -10 0
-10 -2 1 -9 11 -7 10 -13 -4 -35 -9 -14 -21 -24 -25 -21 -5 3 -11 -1 -13 -7
-3 -7 -6 -3 -6 10 -1 26 -26 29 -53 5 -11 -9 -18 -11 -18 -5 0 7 5 12 11 12 5
0 8 4 5 9 -3 5 10 11 29 13 27 3 35 0 35 -12 0 -13 1 -13 10 0 17 27 11 33
-34 28 -41 -5 -43 -4 -43 19 0 14 2 21 6 16 10 -16 40 -23 47 -11 4 7 9 6 15
-3 6 -9 6 -1 2 20 -4 21 -2 32 3 28 6 -3 18 10 29 29 22 41 32 43 41 8z m-166
-9 c0 -8 -6 -15 -12 -16 -10 0 -10 -2 0 -6 13 -5 17 -65 5 -77 -4 -3 -7 -21
-7 -38 -1 -17 -6 -33 -12 -35 -8 -3 -12 26 -13 92 -1 89 0 95 19 95 11 0 20
-7 20 -15z m100 5 c0 -5 -2 -10 -4 -10 -3 0 -8 5 -11 10 -3 6 -1 10 4 10 6 0
11 -4 11 -10z m791 -13 c-10 -9 -11 -8 -5 6 3 10 9 15 12 12 3 -3 0 -11 -7
-18z m-1921 -9 c0 -16 -3 -19 -11 -11 -6 6 -8 16 -5 22 11 17 16 13 16 -11z
m214 -19 c13 -6 22 -17 19 -24 -2 -8 1 -23 7 -35 11 -20 10 -21 -9 -11 -17 10
-20 9 -15 -4 4 -10 0 -15 -15 -15 -12 0 -21 -6 -21 -14 0 -7 -11 -16 -25 -18
-13 -3 -22 -2 -20 3 3 4 -8 10 -25 14 -26 6 -28 8 -16 21 8 8 19 14 25 14 6 0
11 6 11 14 0 8 12 24 28 35 15 12 19 18 10 15 -10 -3 -18 -1 -18 5 0 14 32 14
64 0z m-124 -9 c0 -5 -4 -10 -10 -10 -5 0 -10 5 -10 10 0 6 5 10 10 10 6 0 10
-4 10 -10z m1663 -14 c-30 -25 -57 -41 -97 -56 -42 -15 -30 -4 29 30 30 17 55
36 55 41 0 5 9 9 21 9 19 0 18 -2 -8 -24z m-1439 5 c3 -5 -3 -11 -14 -14 -20
-5 -26 3 -13 16 9 10 21 9 27 -2z m340 -23 c16 -11 3 -18 -22 -11 -12 3 -22
11 -22 18 0 17 24 26 29 11 2 -6 9 -14 15 -18z m453 26 c-3 -3 -12 -4 -19 -1
-8 3 -5 6 6 6 11 1 17 -2 13 -5z m943 2 c0 -11 -19 -15 -25 -6 -3 5 1 10 9 10
9 0 16 -2 16 -4z m-1580 -36 c10 -5 28 -10 40 -10 12 0 18 -4 15 -10 -3 -5
-15 -10 -25 -10 -10 0 -26 -8 -36 -17 -13 -13 -19 -14 -22 -5 -2 7 -8 9 -14 6
-6 -4 -8 1 -3 15 6 19 3 21 -39 21 -25 0 -46 -4 -46 -10 0 -5 -7 -7 -15 -4 -8
4 -12 10 -9 15 3 5 10 7 15 4 5 -4 9 -2 9 4 0 19 94 20 130 1z m809 -45 c1 -5
-3 -4 -8 3 -12 20 -19 19 -36 -5 -23 -32 -32 -28 -27 9 4 28 6 30 13 13 8 -22
13 -7 10 30 -2 17 2 15 23 -10 14 -16 25 -34 25 -40z m-509 19 c0 -2 -9 -4
-20 -4 -11 0 -20 4 -20 9 0 5 9 7 20 4 11 -3 20 -7 20 -9z m85 -4 c3 -5 14
-10 23 -10 9 0 28 -10 42 -21 19 -16 21 -19 6 -15 -11 4 -40 11 -64 17 -57 12
-68 19 -51 30 19 12 36 11 44 -1z m-922 -15 c-3 -9 -8 -14 -10 -11 -3 3 -2 9
2 15 9 16 15 13 8 -4z m367 -11 c0 -2 -9 -4 -20 -4 -11 0 -20 4 -20 9 0 5 9 7
20 4 11 -3 20 -7 20 -9z m1320 7 c0 -5 -12 -11 -27 -14 -26 -5 -26 -4 -8 9 22
16 35 18 35 5z m-1189 -34 c-13 -13 -26 -3 -16 12 3 6 11 8 17 5 6 -4 6 -10
-1 -17z"/>
<path d="M2505 4669 c-4 -13 -19 -34 -33 -47 l-27 -22 43 17 c25 10 38 19 31
23 -8 6 -8 9 1 12 10 3 10 9 3 23 -10 17 -11 17 -18 -6z"/>
<path d="M2146 4668 c5 -8 2 -9 -9 -5 -10 3 -17 3 -17 -2 0 -5 13 -11 29 -13
26 -4 28 -2 17 14 -6 10 -14 18 -19 18 -4 0 -5 -5 -1 -12z"/>
<path d="M2078 4653 c-10 -2 -18 -9 -18 -14 0 -6 8 -5 20 1 11 6 20 13 20 15
0 3 -1 4 -2 4 -2 -1 -11 -3 -20 -6z"/>
<path d="M2774 4641 c0 -15 3 -17 13 -9 7 6 13 14 13 19 0 5 -6 9 -13 9 -7 0
-13 -9 -13 -19z"/>
<path d="M2320 4630 c0 -5 5 -10 10 -10 6 0 10 5 10 10 0 6 -4 10 -10 10 -5 0
-10 -4 -10 -10z"/>
<path d="M2681 4616 c12 -10 60 -16 54 -6 -3 5 -18 10 -32 10 -15 0 -24 -2
-22 -4z"/>
<path d="M2740 4580 c0 -5 5 -10 10 -10 6 0 10 5 10 10 0 6 -4 10 -10 10 -5 0
-10 -4 -10 -10z"/>
<path d="M2003 3813 c9 -2 25 -2 35 0 9 3 1 5 -18 5 -19 0 -27 -2 -17 -5z"/>
<path d="M1954 3795 c-10 -8 -14 -14 -9 -15 15 0 40 18 34 24 -3 3 -14 -1 -25
-9z"/>
<path d="M1726 3662 c-3 -5 1 -9 9 -9 8 0 12 4 9 9 -3 4 -7 8 -9 8 -2 0 -6 -4
-9 -8z"/>
<path d="M3207 3654 c-7 -7 2 -34 12 -34 4 0 7 9 8 20 2 19 -8 26 -20 14z"/>
<path d="M2420 3635 c75 -25 143 -33 125 -16 -10 9 -155 41 -184 41 -9 -1 18
-12 59 -25z"/>
<path d="M2201 3585 c-21 -11 -16 -13 51 -17 60 -4 88 -12 146 -41 85 -43 102
-46 102 -14 0 20 -8 25 -47 35 -27 7 -73 19 -103 28 -72 22 -121 25 -149 9z"/>
<path d="M2530 3520 c0 -5 5 -10 10 -10 6 0 10 5 10 10 0 6 -4 10 -10 10 -5 0
-10 -4 -10 -10z"/>
<path d="M2130 3499 c0 -5 9 -9 20 -9 11 0 28 -4 38 -9 9 -5 48 -24 85 -42 38
-19 75 -42 84 -51 9 -10 20 -18 25 -18 5 0 20 -12 33 -26 15 -16 37 -27 60
-29 40 -4 46 11 14 38 -11 10 -19 21 -16 24 9 8 47 -8 47 -20 0 -8 15 -11 45
-9 37 3 44 7 42 23 -5 29 -16 34 -31 14 -14 -19 -36 -13 -36 10 0 18 -40 31
-50 15 -8 -13 -80 -4 -80 11 0 5 -16 15 -36 24 -19 8 -48 24 -64 35 -26 19
-40 21 -95 19 -11 -1 -35 1 -52 4 -18 3 -33 1 -33 -4z"/>
<path d="M2625 3360 c4 -6 11 -8 16 -5 14 9 11 15 -7 15 -8 0 -12 -5 -9 -10z"/>
<path d="M2725 3281 c-18 -7 -17 -8 7 -13 19 -4 25 -1 21 9 -3 7 -6 13 -7 12
0 0 -10 -4 -21 -8z"/>
<path d="M2686 3267 c3 -10 9 -15 12 -12 3 3 0 11 -7 18 -10 9 -11 8 -5 -6z"/>
<path d="M2818 3243 c7 -3 16 -2 19 1 4 3 -2 6 -13 5 -11 0 -14 -3 -6 -6z"/>
<path d="M2780 3236 c0 -2 7 -7 16 -10 8 -3 12 -2 9 4 -6 10 -25 14 -25 6z"/>
<path d="M3734 3149 c-11 -19 9 -27 84 -32 68 -4 96 4 76 23 -15 13 -152 21
-160 9z"/>
<path d="M3932 3128 c6 -17 42 -26 111 -27 71 -1 75 20 6 31 -74 11 -121 9
-117 -4z"/>
<path d="M4174 3129 c-8 -14 11 -33 25 -25 6 4 11 11 11 16 0 13 -29 20 -36 9z"/>
<path d="M4110 2996 c0 -18 30 -30 43 -17 5 5 6 14 3 20 -10 16 -46 13 -46 -3z"/>
<path d="M4232 2984 c4 -25 37 -31 34 -7 -2 10 -11 20 -20 21 -13 3 -17 -2
-14 -14z"/>
<path d="M4226 2323 c-3 -7 1 -10 10 -6 7 3 14 0 14 -7 0 -7 8 -10 20 -7 10 3
21 0 24 -7 2 -6 5 -3 5 7 1 9 -6 17 -14 17 -8 0 -15 4 -15 9 0 14 -39 9 -44
-6z"/>
<path d="M4227 2286 c-4 -9 -13 -13 -22 -10 -21 8 -19 -9 4 -30 19 -17 19 -17
17 1 -2 10 1 24 7 31 5 7 8 15 5 18 -3 3 -8 -2 -11 -10z"/>
<path d="M3592 2107 c-12 -14 -5 -57 9 -57 5 0 9 16 9 35 0 38 -2 41 -18 22z"/>
<path d="M3280 2200 c-9 -6 -10 -10 -3 -10 6 0 15 5 18 10 8 12 4 12 -15 0z"/>
<path d="M3131 1824 c0 -11 3 -14 6 -6 3 7 2 16 -1 19 -3 4 -6 -2 -5 -13z"/>
<path d="M2961 1544 c0 -11 3 -14 6 -6 3 7 2 16 -1 19 -3 4 -6 -2 -5 -13z"/>
<path d="M1951 1714 c0 -11 3 -14 6 -6 3 7 2 16 -1 19 -3 4 -6 -2 -5 -13z"/>
<path d="M1953 1655 c1 -23 7 -35 17 -36 10 0 11 -2 2 -6 -6 -2 -10 -8 -7 -13
3 -5 -2 -16 -11 -24 -14 -15 -14 -16 6 -16 12 0 18 5 15 10 -3 6 -1 10 4 10
16 0 13 56 -4 74 -18 17 -20 30 -3 20 7 -4 8 -3 4 4 -14 23 -25 12 -23 -23z"/>
<path d="M2120 1615 c-8 -9 -8 -15 -2 -15 12 0 26 19 19 26 -2 2 -10 -2 -17
-11z"/>
<path d="M2220 1580 c0 -5 5 -10 11 -10 5 0 7 5 4 10 -3 6 -8 10 -11 10 -2 0
-4 -4 -4 -10z"/>
<path d="M2080 1550 c0 -5 7 -10 15 -10 8 0 15 5 15 10 0 6 -7 10 -15 10 -8 0
-15 -4 -15 -10z"/>
<path d="M2230 1880 c0 -5 5 -10 10 -10 6 0 10 5 10 10 0 6 -4 10 -10 10 -5 0
-10 -4 -10 -10z"/>
<path d="M2260 1885 c0 -2 6 -8 13 -14 10 -8 14 -7 14 2 0 8 -6 14 -14 14 -7
0 -13 -1 -13 -2z"/>
<path d="M2759 1784 c-15 -18 20 -27 37 -10 8 8 14 16 14 18 0 9 -42 2 -51 -8z"/>
<path d="M2767 1673 c-4 -3 -7 -11 -7 -17 0 -6 5 -5 12 2 6 6 9 14 7 17 -3 3
-9 2 -12 -2z"/>
<path d="M1160 1539 c-30 -4 -79 -7 -108 -8 -49 -1 -53 -3 -50 -23 2 -14 14
-25 38 -33 31 -10 33 -13 15 -22 -15 -9 -18 -21 -16 -64 3 -70 12 -78 81 -69
79 10 84 12 90 40 3 14 12 25 20 25 15 0 30 13 30 28 0 5 -4 6 -9 3 -4 -3 -6
6 -3 19 2 15 0 25 -7 25 -8 0 -8 6 1 20 8 12 15 15 19 9 4 -7 9 -8 13 -1 7 11
-22 46 -44 53 -8 3 -40 2 -70 -2z"/>
<path d="M1630 1139 c0 -5 5 -7 10 -4 6 3 10 8 10 11 0 2 -4 4 -10 4 -5 0 -10
-5 -10 -11z"/>
<path d="M2784 1539 c0 -22 12 -25 19 -5 3 8 0 16 -6 19 -7 3 -13 -3 -13 -14z"/>
<path d="M2760 1599 c0 -5 5 -7 10 -4 6 3 10 8 10 11 0 2 -4 4 -10 4 -5 0 -10
-5 -10 -11z"/>
<path d="M3105 1440 c3 -5 8 -10 11 -10 2 0 4 5 4 10 0 6 -5 10 -11 10 -5 0
-7 -4 -4 -10z"/>
<path d="M1685 1080 c-3 -5 -1 -10 4 -10 6 0 11 5 11 10 0 6 -2 10 -4 10 -3 0
-8 -4 -11 -10z"/>
<path d="M1617 974 c-11 -11 -8 -26 3 -19 6 3 10 -2 11 -12 0 -10 3 -13 5 -6
7 15 -10 46 -19 37z"/>
<path d="M1745 759 c-10 -15 3 -25 16 -12 7 7 7 13 1 17 -6 3 -14 1 -17 -5z"/>
<path d="M3155 260 c-3 -6 1 -7 9 -4 18 7 21 14 7 14 -6 0 -13 -4 -16 -10z"/>
<path d="M2537 5346 c-4 -10 -5 -21 -2 -24 9 -9 17 6 13 25 -3 17 -4 17 -11
-1z"/>
<path d="M2380 5341 c0 -14 38 -24 66 -17 14 4 22 11 19 16 -8 13 -85 13 -85
1z"/>
<path d="M2318 5253 c7 -3 16 -2 19 1 4 3 -2 6 -13 5 -11 0 -14 -3 -6 -6z"/>
<path d="M2258 5243 c7 -3 16 -2 19 1 4 3 -2 6 -13 5 -11 0 -14 -3 -6 -6z"/>
<path d="M2728 5203 c7 -3 16 -2 19 1 4 3 -2 6 -13 5 -11 0 -14 -3 -6 -6z"/>
<path d="M1875 5049 c-4 -6 -5 -12 -2 -15 2 -3 7 2 10 11 7 17 1 20 -8 4z"/>
<path d="M55 4930 c4 -6 11 -8 16 -5 14 9 11 15 -7 15 -8 0 -12 -5 -9 -10z"/>
<path d="M2938 3843 c7 -3 16 -2 19 1 4 3 -2 6 -13 5 -11 0 -14 -3 -6 -6z"/>
<path d="M3633 3675 c0 -10 10 -15 31 -15 32 0 27 13 -10 24 -15 4 -21 2 -21
-9z"/>
<path d="M3840 3606 c0 -2 7 -9 15 -16 9 -7 15 -8 15 -2 0 5 -7 12 -15 16 -8
3 -15 4 -15 2z"/>
<path d="M3876 3572 c-3 -6 -1 -14 5 -17 14 -9 20 -2 10 14 -6 8 -11 9 -15 3z"/>
<path d="M3850 3446 c0 -2 7 -6 15 -10 8 -3 15 -1 15 4 0 6 -7 10 -15 10 -8 0
-15 -2 -15 -4z"/>
<path d="M3928 3423 c6 -2 9 -10 6 -15 -4 -7 -2 -8 4 -4 7 4 12 2 12 -5 0 -7
3 -9 6 -6 9 8 -15 37 -30 36 -7 0 -6 -2 2 -6z"/>
<path d="M4060 3400 c-8 -5 -12 -12 -9 -15 4 -3 12 1 19 10 14 17 11 19 -10 5z"/>
<path d="M2117 3382 c-2 -4 9 -27 24 -52 16 -24 30 -41 30 -37 5 27 4 35 -7
58 -13 27 -40 44 -47 31z"/>
<path d="M4113 3375 c0 -8 4 -15 9 -15 4 0 8 4 8 9 0 6 -4 12 -8 15 -5 3 -9
-1 -9 -9z"/>
<path d="M3915 3360 c3 -5 8 -10 11 -10 2 0 4 5 4 10 0 6 -5 10 -11 10 -5 0
-7 -4 -4 -10z"/>
<path d="M3915 3339 c-16 -4 -25 -8 -20 -9 6 -1 18 -3 27 -5 10 -2 21 1 24 7
9 14 3 15 -31 7z"/>
<path d="M4060 3346 c0 -2 7 -6 15 -10 8 -3 15 -1 15 4 0 6 -7 10 -15 10 -8 0
-15 -2 -15 -4z"/>
<path d="M959 3331 c-14 -5 -35 -14 -47 -20 -18 -10 -22 -9 -22 4 0 8 -5 15
-11 15 -23 0 -2 -34 25 -41 34 -9 86 13 86 36 0 8 -1 15 -2 14 -2 0 -15 -4
-29 -8z"/>
<path d="M4109 3303 c-13 -15 -12 -15 9 -4 23 12 28 21 13 21 -5 0 -15 -7 -22
-17z"/>
<path d="M2093 3288 c-1 -14 1 -18 5 -11 5 9 12 6 21 -9 12 -19 11 -20 -6 -14
-14 6 -15 4 -6 -5 22 -22 34 1 16 32 -21 35 -28 37 -30 7z"/>
<path d="M1989 3263 c-13 -16 -12 -17 4 -4 9 7 17 15 17 17 0 8 -8 3 -21 -13z"/>
<path d="M2140 3276 c0 -2 8 -10 18 -17 15 -13 16 -12 3 4 -13 16 -21 21 -21
13z"/>
<path d="M622 3200 c0 -14 2 -19 5 -12 2 6 2 18 0 25 -3 6 -5 1 -5 -13z"/>
<path d="M1372 3183 c-35 -19 -60 -38 -57 -41 3 -3 23 5 45 17 22 12 40 17 40
12 0 -6 -5 -11 -12 -11 -6 0 -9 -2 -7 -5 8 -7 69 18 69 28 0 5 -9 7 -20 4 -26
-7 -15 12 14 23 12 5 15 9 6 9 -8 0 -43 -16 -78 -36z"/>
<path d="M811 3184 c0 -11 3 -14 6 -6 3 7 2 16 -1 19 -3 4 -6 -2 -5 -13z"/>
<path d="M2045 3190 c3 -5 8 -10 11 -10 2 0 4 5 4 10 0 6 -5 10 -11 10 -5 0
-7 -4 -4 -10z"/>
<path d="M5459 3185 c-3 -3 -40 -6 -82 -6 -70 -1 -77 -3 -92 -26 -16 -24 -16
-26 17 -62 45 -49 57 -73 51 -104 -5 -27 -5 -27 55 -27 34 0 64 -4 67 -10 19
-31 25 0 23 112 -3 101 -6 123 -18 126 -9 1 -18 0 -21 -3z"/>
<path d="M4390 3150 c0 -5 5 -10 11 -10 5 0 7 5 4 10 -3 6 -8 10 -11 10 -2 0
-4 -4 -4 -10z"/>
<path d="M1346 3133 c-6 -6 26 -118 36 -128 7 -7 8 -3 4 12 -5 15 -1 25 11 33
17 11 17 11 0 6 -12 -4 -20 2 -27 20 -13 34 -13 44 3 44 8 0 19 -10 25 -22
l11 -23 7 23 c7 25 14 27 34 10 12 -11 12 -10 2 4 -11 13 -96 30 -106 21z"/>
<path d="M1750 3124 c0 -5 7 -19 15 -30 8 -10 15 -14 15 -8 0 5 -7 19 -15 30
-8 10 -15 14 -15 8z"/>
<path d="M514 3104 c3 -9 6 -27 6 -42 0 -25 1 -25 15 -6 22 30 19 64 -6 64
-15 0 -19 -4 -15 -16z"/>
<path d="M1297 3111 c-17 -6 -16 -8 7 -21 14 -7 26 -20 26 -28 0 -9 2 -13 5
-10 7 7 -6 68 -14 67 -3 0 -14 -4 -24 -8z"/>
<path d="M2083 3113 c-7 -3 -13 -8 -13 -13 0 -10 24 -7 28 4 5 11 -1 14 -15 9z"/>
<path d="M1232 3060 c-11 -18 -10 -19 13 -8 13 6 22 15 19 19 -8 14 -18 11
-32 -11z"/>
<path d="M1420 3060 c0 -5 5 -10 10 -10 6 0 10 5 10 10 0 6 -4 10 -10 10 -5 0
-10 -4 -10 -10z"/>
<path d="M1470 3034 c0 -8 5 -12 10 -9 6 3 10 10 10 16 0 5 -4 9 -10 9 -5 0
-10 -7 -10 -16z"/>
<path d="M1267 3033 c-4 -3 -7 -11 -7 -17 0 -6 5 -5 12 2 6 6 9 14 7 17 -3 3
-9 2 -12 -2z"/>
<path d="M1420 3025 c0 -8 5 -15 10 -15 6 0 10 7 10 15 0 8 -4 15 -10 15 -5 0
-10 -7 -10 -15z"/>
<path d="M1470 3000 c0 -5 5 -10 10 -10 6 0 10 5 10 10 0 6 -4 10 -10 10 -5 0
-10 -4 -10 -10z"/>
<path d="M1187 2985 c3 -8 9 -12 14 -9 12 7 11 11 -5 17 -10 4 -13 1 -9 -8z"/>
<path d="M1393 2968 c-3 -29 26 -88 42 -88 8 0 15 5 15 10 0 6 -6 9 -12 8 -7
-2 -13 4 -13 12 -1 8 -6 25 -13 37 -10 18 -9 22 6 25 15 3 14 5 -3 9 -16 5
-21 1 -22 -13z"/>
<path d="M1470 2963 c-8 -2 -21 -7 -29 -9 -10 -3 -11 -8 -4 -15 14 -14 83 0
83 17 0 14 -21 17 -50 7z"/>
<path d="M771 2946 c-9 -11 -8 -18 4 -30 21 -21 24 -20 22 3 -1 13 -6 17 -17
13 -13 -5 -13 -3 -1 11 7 9 11 17 8 17 -2 0 -10 -6 -16 -14z"/>
<path d="M1330 2940 c6 -11 13 -20 16 -20 2 0 0 9 -6 20 -6 11 -13 20 -16 20
-2 0 0 -9 6 -20z"/>
<path d="M1036 2925 c-20 -15 -12 -22 24 -24 8 0 24 -2 35 -3 11 -2 20 2 20 7
0 6 -11 9 -23 7 -15 -2 -21 1 -17 7 4 7 0 8 -11 4 -12 -4 -15 -3 -10 5 9 15 5
15 -18 -3z"/>
<path d="M1165 2930 c-3 -6 1 -7 9 -4 18 7 21 14 7 14 -6 0 -13 -4 -16 -10z"/>
<path d="M4715 2930 c3 -5 8 -10 11 -10 2 0 4 5 4 10 0 6 -5 10 -11 10 -5 0
-7 -4 -4 -10z"/>
<path d="M5175 2890 c40 -9 122 -13 114 -6 -2 2 -38 6 -79 9 -56 4 -65 3 -35
-3z"/>
<path d="M947 2835 c3 -14 12 -25 19 -25 19 0 17 14 -5 34 -18 16 -18 16 -14
-9z"/>
<path d="M910 2805 c0 -8 7 -15 15 -15 8 0 15 4 15 9 0 5 -7 11 -15 15 -9 3
-15 0 -15 -9z"/>
<path d="M5465 2778 c-38 -29 -105 -135 -105 -165 0 -29 28 -73 46 -73 8 0 14
-4 14 -10 0 -5 18 -10 40 -10 l40 0 0 140 c0 77 -2 140 -4 140 -2 0 -16 -10
-31 -22z"/>
<path d="M1340 2769 c-26 -15 -29 -18 -10 -13 14 3 32 12 40 20 18 18 13 16
-30 -7z"/>
<path d="M872 2761 c-10 -6 -10 -10 3 -21 13 -11 15 -10 9 4 -3 9 -1 16 5 16
6 0 11 -9 11 -19 0 -11 5 -23 10 -26 11 -7 12 0 4 33 -7 23 -20 27 -42 13z"/>
<path d="M765 2729 c-10 -15 3 -25 16 -12 7 7 7 13 1 17 -6 3 -14 1 -17 -5z"/>
<path d="M943 2711 c-9 -15 -10 -22 -1 -27 6 -4 8 -3 4 4 -3 5 -1 12 5 14 7 2
10 9 8 16 -3 8 -9 5 -16 -7z"/>
<path d="M726 2701 c-10 -11 -13 -21 -7 -25 10 -7 14 -3 24 27 8 22 4 22 -17
-2z"/>
<path d="M1090 2698 c0 -9 -5 -20 -12 -24 -7 -5 -8 -3 -3 6 5 9 4 11 -3 6 -9
-5 -9 -13 -1 -29 16 -29 24 -37 15 -13 -5 15 -4 17 7 8 27 -23 36 12 12 44
-13 17 -14 17 -15 2z"/>
<path d="M1120 2695 c0 -9 6 -12 15 -9 8 4 15 10 15 15 0 5 -7 9 -15 9 -8 0
-15 -7 -15 -15z"/>
<path d="M4895 2694 c-27 -9 -62 -18 -77 -21 -41 -8 -56 -32 -72 -114 -8 -41
-13 -75 -13 -75 1 -1 23 8 49 21 25 12 57 25 70 28 40 10 100 69 103 102 2 16
14 36 26 45 19 15 20 18 4 23 -22 9 -31 8 -90 -9z"/>
<path d="M807 2694 c-3 -3 -3 -12 0 -20 3 -8 -3 -25 -13 -37 -16 -19 -15 -19
8 2 19 17 25 28 18 36 -5 7 -7 15 -3 18 3 4 4 7 1 7 -2 0 -7 -3 -11 -6z"/>
<path d="M754 2660 c0 -20 7 -25 19 -14 7 7 -2 34 -12 34 -4 0 -7 -9 -7 -20z"/>
<path d="M941 2657 c-8 -10 -7 -18 3 -32 12 -17 13 -16 12 13 -1 37 0 36 -15
19z"/>
<path d="M812 2623 c-35 -30 -45 -34 -53 -22 -7 12 -9 12 -9 -2 0 -9 9 -24 19
-33 23 -21 42 -13 86 35 29 31 28 31 -17 -5 -32 -26 -48 -33 -48 -24 0 9 18
28 40 43 22 15 40 32 40 36 0 16 -14 9 -58 -28z"/>
<path d="M5195 2540 c-85 -22 -124 -57 -123 -109 1 -30 2 -32 14 -16 12 15 17
16 44 5 25 -10 34 -10 52 3 36 24 68 57 68 70 0 21 -12 57 -19 56 -3 -1 -19
-5 -36 -9z"/>
<path d="M751 2484 c0 -11 3 -14 6 -6 3 7 2 16 -1 19 -3 4 -6 -2 -5 -13z"/>
<path d="M566 2474 c-10 -27 -7 -44 9 -44 10 0 15 10 15 30 0 32 -14 40 -24
14z"/>
<path d="M700 2485 c0 -5 5 -17 10 -25 5 -8 10 -10 10 -5 0 6 -5 17 -10 25 -5
8 -10 11 -10 5z"/>
<path d="M617 2456 c-4 -9 1 -16 11 -19 16 -4 15 -5 0 -6 -19 -1 -25 -36 -8
-46 6 -3 10 2 10 12 0 11 5 24 12 31 9 10 9 16 -4 28 -13 14 -16 14 -21 0z"/>
<path d="M668 2433 c6 -2 18 -2 25 0 6 3 1 5 -13 5 -14 0 -19 -2 -12 -5z"/>
<path d="M585 2398 c-4 -16 -12 -28 -19 -29 -6 0 -2 -4 9 -8 26 -11 38 9 26
41 l-9 23 -7 -27z"/>
<path d="M4603 1933 c-13 -2 -23 -10 -23 -16 0 -20 -114 -57 -174 -57 -28 0
-33 -9 -14 -28 26 -26 301 -1 332 31 10 9 13 17 7 17 -5 0 -22 11 -38 24 -32
27 -58 35 -90 29z"/>
<path d="M4170 1246 c0 -8 5 -18 10 -21 6 -3 10 3 10 14 0 12 -4 21 -10 21 -5
0 -10 -6 -10 -14z"/>
</g>
</svg>
